goteka-regular.ufo
<glyph name="exclam" format="2">
  <advance width="524"/>
  <unicode hex="0021"/>
  <outline>
    <contour>
      <point x="178" y="1453" type="line"/>
      <point x="357" y="1453" type="line"/>
      <point x="318" y="371" type="line"/>
      <point x="215" y="371" type="line"/>
    </contour>
    <contour>
      <point x="266" y="-23" type="qcurve"/>
      <point x="221" y="-22"/>
      <point x="191" y="8" type="qcurve"/>
      <point x="160" y="42"/>
      <point x="160" y="84" type="qcurve"/>
      <point x="160" y="124"/>
      <point x="191" y="154" type="qcurve"/>
      <point x="221" y="184"/>
      <point x="266" y="184" type="qcurve"/>
      <point x="308" y="184"/>
      <point x="336" y="154" type="qcurve"/>
      <point x="369" y="124"/>
      <point x="369" y="84" type="qcurve"/>
      <point x="370" y="42"/>
      <point x="338" y="8" type="qcurve"/>
      <point x="308" y="-22"/>
    </contour>
  </outline>
</glyph>
<glyph name="quotesingle" format="2">
  <advance width="415"/>
  <unicode hex="0027"/>
  <outline>
    <contour>
      <point x="135" y="996" type="line"/>
      <point x="135" y="1384" type="line"/>
      <point x="280" y="1384" type="line"/>
      <point x="280" y="996" type="line"/>
    </contour>
  </outline>
</glyph>
<glyph name="parenleft" format="2">
  <advance width="760"/>
  <unicode hex="0028"/>
  <outline>
    <contour>
      <point x="648" y="1406" type="line"/>
      <point x="561" y="1314"/>
      <point x="495" y="1219" type="qcurve"/>
      <point x="431" y="1124"/>
      <point x="383" y="1025" type="qcurve"/>
      <point x="291" y="823"/>
      <point x="291" y="568" type="qcurve"/>
      <point x="291" y="313"/>
      <point x="383" y="113" type="qcurve"/>
      <point x="473" y="-85"/>
      <point x="650" y="-273" type="qcurve"/>
      <point x="572" y="-355" type="line"/>
      <point x="362" y="-178"/>
      <point x="248" y="57" type="qcurve"/>
      <point x="134" y="294"/>
      <point x="135" y="568" type="qcurve"/>
      <point x="134" y="838"/>
      <point x="248" y="1072" type="qcurve"/>
      <point x="362" y="1308"/>
      <point x="572" y="1488" type="qcurve"/>
    </contour>
  </outline>
</glyph>
<glyph name="asterisk" format="2">
  <advance width="788"/>
  <unicode hex="002A"/>
  <outline>
    <contour>
      <point x="272" y="756" type="line"/>
      <point x="393" y="944" type="line"/>
      <point x="515" y="756" type="line"/>
      <point x="599" y="809" type="line"/>
      <point x="469" y="1009" type="line"/>
      <point x="675" y="1084" type="line"/>
      <point x="641" y="1178" type="line"/>
      <point x="443" y="1106" type="line"/>
      <point x="443" y="1347" type="line"/>
      <point x="344" y="1347" type="line"/>
      <point x="344" y="1106" type="line"/>
      <point x="146" y="1178" type="line"/>
      <point x="112" y="1084" type="line"/>
      <point x="318" y="1009" type="line"/>
      <point x="188" y="809" type="line"/>
    </contour>
  </outline>
</glyph>
<glyph name="hyphen" format="2">
  <advance width="715"/>
  <unicode hex="002D"/>
  <outline>
    <contour>
      <point x="106" y="594" type="line"/>
      <point x="606" y="594" type="line"/>
      <point x="606" y="453" type="line"/>
      <point x="106" y="453" type="line"/>
    </contour>
  </outline>
</glyph>
<glyph name="zero" format="2">
  <advance width="1526"/>
  <unicode hex="0030"/>
  <outline>
    <contour>
      <point x="720" y="1478" type="qcurve"/>
      <point x="891" y="1480"/>
      <point x="1029" y="1384" type="qcurve"/>
      <point x="1168" y="1288"/>
      <point x="1242" y="1119" type="qcurve"/>
      <point x="1322" y="949"/>
      <point x="1322" y="730" type="qcurve"/>
      <point x="1325" y="510"/>
      <point x="1244" y="338" type="qcurve"/>
      <point x="1169" y="173"/>
      <point x="1031" y="74" type="qcurve"/>
      <point x="894" y="-20"/>
      <point x="720" y="-23" type="qcurve"/>
      <point x="546" y="-22"/>
      <point x="404" y="72" type="qcurve"/>
      <point x="272" y="172"/>
      <point x="191" y="338" type="qcurve"/>
      <point x="113" y="510"/>
      <point x="113" y="730" type="qcurve"/>
      <point x="111" y="948"/>
      <point x="189" y="1117" type="qcurve"/>
      <point x="272" y="1286"/>
      <point x="404" y="1382" type="qcurve"/>
      <point x="546" y="1481"/>
    </contour>
    <contour>
      <point x="720" y="1341" type="qcurve"/>
      <point x="588" y="1341"/>
      <point x="484" y="1263" type="qcurve"/>
      <point x="386" y="1188"/>
      <point x="324" y="1048" type="qcurve"/>
      <point x="266" y="907"/>
      <point x="266" y="730" type="qcurve"/>
      <point x="266" y="558"/>
      <point x="322" y="414" type="qcurve"/>
      <point x="382" y="276"/>
      <point x="484" y="195" type="qcurve"/>
      <point x="588" y="115"/>
      <point x="720" y="115" type="qcurve"/>
      <point x="849" y="115"/>
      <point x="951" y="193" type="qcurve"/>
      <point x="1056" y="274"/>
      <point x="1111" y="410" type="qcurve"/>
      <point x="1171" y="558"/>
      <point x="1168" y="730" type="qcurve"/>
      <point x="1171" y="906"/>
      <point x="1111" y="1046" type="qcurve"/>
      <point x="1056" y="1186"/>
      <point x="951" y="1263" type="qcurve"/>
      <point x="849" y="1341"/>
    </contour>
  </outline>
</glyph>
<glyph name="three" format="2">
  <advance width="1247"/>
  <unicode hex="0033"/>
  <outline>
    <contour>
      <point x="615" y="-16" type="qcurve"/>
      <point x="452" y="-18"/>
      <point x="314" y="49" type="qcurve"/>
      <point x="182" y="120"/>
      <point x="96" y="226" type="qcurve"/>
      <point x="197" y="322" type="line"/>
      <point x="272" y="232"/>
      <point x="375" y="176" type="qcurve"/>
      <point x="485" y="120"/>
      <point x="615" y="117" type="qcurve"/>
      <point x="774" y="120"/>
      <point x="865" y="197" type="qcurve"/>
      <point x="964" y="276"/>
      <point x="964" y="406" type="qcurve"/>
      <point x="964" y="538"/>
      <point x="859" y="603" type="qcurve"/>
      <point x="758" y="670"/>
      <point x="578" y="670" type="qcurve"/>
      <point x="430" y="670" type="line"/>
      <point x="430" y="808" type="line"/>
      <point x="580" y="808" type="line"/>
      <point x="739" y="808"/>
      <point x="832" y="875" type="qcurve"/>
      <point x="931" y="947"/>
      <point x="931" y="1070" type="qcurve"/>
      <point x="934" y="1190"/>
      <point x="836" y="1267" type="qcurve"/>
      <point x="742" y="1346"/>
      <point x="601" y="1343" type="qcurve"/>
      <point x="486" y="1344"/>
      <point x="390" y="1287" type="qcurve"/>
      <point x="303" y="1239"/>
      <point x="219" y="1140" type="qcurve"/>
      <point x="117" y="1228" type="line"/>
      <point x="309" y="1480"/>
      <point x="609" y="1478" type="qcurve"/>
      <point x="748" y="1481"/>
      <point x="853" y="1431" type="qcurve"/>
      <point x="956" y="1382"/>
      <point x="1019" y="1292" type="qcurve"/>
      <point x="1082" y="1202"/>
      <point x="1082" y="1091" type="qcurve"/>
      <point x="1082" y="1026"/>
      <point x="1065" y="973" type="qcurve"/>
      <point x="1049" y="921"/>
      <point x="1004" y="877" type="qcurve"/>
      <point x="962" y="831"/>
      <point x="893" y="793" type="qcurve"/>
      <point x="824" y="757"/>
      <point x="793" y="748" type="qcurve"/>
      <point x="828" y="740"/>
      <point x="902" y="705" type="qcurve"/>
      <point x="977" y="671"/>
      <point x="1025" y="623" type="qcurve"/>
      <point x="1115" y="536"/>
      <point x="1115" y="396" type="qcurve"/>
      <point x="1115" y="278"/>
      <point x="1052" y="184" type="qcurve"/>
      <point x="989" y="92"/>
      <point x="875" y="35" type="qcurve"/>
      <point x="768" y="-18"/>
    </contour>
  </outline>
</glyph>
<glyph name="six" format="2">
  <advance width="1292"/>
  <unicode hex="0036"/>
  <outline>
    <contour>
      <point x="695" y="910" type="qcurve"/>
      <point x="782" y="911"/>
      <point x="867" y="885" type="qcurve"/>
      <point x="954" y="860"/>
      <point x="1021" y="804" type="qcurve"/>
      <point x="1090" y="748"/>
      <point x="1133" y="663" type="qcurve"/>
      <point x="1178" y="578"/>
      <point x="1177" y="455" type="qcurve"/>
      <point x="1178" y="398"/>
      <point x="1155" y="315" type="qcurve"/>
      <point x="1133" y="232"/>
      <point x="1076" y="157" type="qcurve"/>
      <point x="1020" y="83"/>
      <point x="921" y="30" type="qcurve"/>
      <point x="822" y="-22"/>
      <point x="668" y="-23" type="qcurve"/>
      <point x="576" y="-22"/>
      <point x="478" y="6" type="qcurve"/>
      <point x="380" y="36"/>
      <point x="299" y="115" type="qcurve"/>
      <point x="219" y="196"/>
      <point x="167" y="337" type="qcurve"/>
      <point x="116" y="481"/>
      <point x="115" y="707" type="qcurve"/>
      <point x="115" y="875"/>
      <point x="163" y="1016" type="qcurve"/>
      <point x="211" y="1158"/>
      <point x="292" y="1260" type="qcurve"/>
      <point x="373" y="1364"/>
      <point x="479" y="1420" type="qcurve"/>
      <point x="586" y="1478"/>
      <point x="703" y="1478" type="qcurve"/>
      <point x="859" y="1479"/>
      <point x="965" y="1414" type="qcurve"/>
      <point x="1072" y="1350"/>
      <point x="1117" y="1306" type="qcurve"/>
      <point x="1031" y="1185" type="line"/>
      <point x="992" y="1222"/>
      <point x="903" y="1282" type="qcurve"/>
      <point x="815" y="1344"/>
      <point x="695" y="1343" type="qcurve"/>
      <point x="589" y="1344"/>
      <point x="508" y="1281" type="qcurve"/>
      <point x="428" y="1219"/>
      <point x="374" y="1122" type="qcurve"/>
      <point x="321" y="1026"/>
      <point x="295" y="910" type="qcurve"/>
      <point x="269" y="796"/>
      <point x="269" y="691" type="qcurve"/>
      <point x="306" y="752"/>
      <point x="412" y="830" type="qcurve"/>
      <point x="520" y="908"/>
    </contour>
    <contour>
      <point x="662" y="105" type="qcurve"/>
      <point x="760" y="105"/>
      <point x="829" y="144" type="qcurve"/>
      <point x="898" y="184"/>
      <point x="941" y="240" type="qcurve"/>
      <point x="984" y="297"/>
      <point x="1004" y="357" type="qcurve"/>
      <point x="1025" y="419"/>
      <point x="1025" y="455" type="qcurve"/>
      <point x="1025" y="547"/>
      <point x="986" y="608" type="qcurve"/>
      <point x="948" y="671"/>
      <point x="892" y="707" type="qcurve"/>
      <point x="836" y="744"/>
      <point x="774" y="761" type="qcurve"/>
      <point x="712" y="779"/>
      <point x="662" y="779" type="qcurve"/>
      <point x="534" y="780"/>
      <point x="427" y="705" type="qcurve"/>
      <point x="321" y="632"/>
      <point x="289" y="500" type="qcurve"/>
      <point x="315" y="376"/>
      <point x="360" y="297" type="qcurve"/>
      <point x="406" y="220"/>
      <point x="461" y="176" type="qcurve"/>
      <point x="518" y="134"/>
      <point x="571" y="119" type="qcurve"/>
      <point x="626" y="105"/>
    </contour>
  </outline>
</glyph>
<glyph name="equal" format="2">
  <advance width="1143"/>
  <unicode hex="003D"/>
  <outline>
    <contour>
      <point x="129" y="927" type="line"/>
      <point x="1015" y="927" type="line"/>
      <point x="1015" y="785" type="line"/>
      <point x="129" y="785" type="line"/>
    </contour>
    <contour>
      <point x="129" y="502" type="line"/>
      <point x="1015" y="502" type="line"/>
      <point x="1015" y="361" type="line"/>
      <point x="129" y="361" type="line"/>
    </contour>
  </outline>
</glyph>
<glyph name="A" format="2">
  <advance width="1352"/>
  <unicode hex="0041"/>
  <outline>
    <contour>
      <point x="596" y="1456" type="line"/>
      <point x="760" y="1456" type="line"/>
      <point x="1288" y="0" type="line"/>
      <point x="1127" y="0" type="line"/>
      <point x="977" y="418" type="line"/>
      <point x="378" y="418" type="line"/>
      <point x="225" y="0" type="line"/>
      <point x="63" y="0" type="line"/>
    </contour>
    <contour>
      <point x="678" y="1234" type="line"/>
      <point x="429" y="558" type="line"/>
      <point x="926" y="558" type="line"/>
    </contour>
  </outline>
</glyph>
<glyph name="B" format="2">
  <advance width="1313"/>
  <unicode hex="0042"/>
  <outline>
    <contour>
      <point x="180" y="1456" type="line"/>
      <point x="789" y="1456" type="line"/>
      <point x="897" y="1456"/>
      <point x="978" y="1410" type="qcurve"/>
      <point x="1062" y="1364"/>
      <point x="1107" y="1279" type="qcurve"/>
      <point x="1152" y="1195"/>
      <point x="1152" y="1093" type="qcurve"/>
      <point x="1155" y="988"/>
      <point x="1107" y="908" type="qcurve"/>
      <point x="1060" y="836"/>
      <point x="964" y="773" type="qcurve"/>
      <point x="1078" y="710"/>
      <point x="1142" y="615" type="qcurve"/>
      <point x="1205" y="522"/>
      <point x="1205" y="400" type="qcurve"/>
      <point x="1205" y="283"/>
      <point x="1154" y="193" type="qcurve"/>
      <point x="1108" y="102"/>
      <point x="1017" y="51" type="qcurve"/>
      <point x="928" y="0"/>
      <point x="812" y="0" type="qcurve"/>
      <point x="180" y="0" type="line"/>
    </contour>
    <contour>
      <point x="332" y="1318" type="line"/>
      <point x="332" y="834" type="line"/>
      <point x="750" y="834" type="line"/>
      <point x="861" y="834"/>
      <point x="929" y="902" type="qcurve"/>
      <point x="1000" y="970"/>
      <point x="1000" y="1074" type="qcurve"/>
      <point x="1003" y="1184"/>
      <point x="931" y="1250" type="qcurve"/>
      <point x="862" y="1320"/>
      <point x="750" y="1318" type="qcurve"/>
    </contour>
    <contour>
      <point x="332" y="695" type="line"/>
      <point x="332" y="131" type="line"/>
      <point x="773" y="131" type="line"/>
      <point x="899" y="131"/>
      <point x="974" y="209" type="qcurve"/>
      <point x="1054" y="292"/>
      <point x="1054" y="412" type="qcurve"/>
      <point x="1057" y="538"/>
      <point x="976" y="615" type="qcurve"/>
      <point x="898" y="698"/>
      <point x="773" y="695" type="qcurve"/>
    </contour>
  </outline>
</glyph>
<glyph name="E" format="2">
  <advance width="1208"/>
  <unicode hex="0045"/>
  <outline>
    <contour>
      <point x="303" y="1312" type="line"/>
      <point x="303" y="812" type="line"/>
      <point x="1025" y="812" type="line"/>
      <point x="1025" y="670" type="line"/>
      <point x="303" y="670" type="line"/>
      <point x="303" y="141" type="line"/>
      <point x="1103" y="141" type="line"/>
      <point x="1103" y="0" type="line"/>
      <point x="152" y="0" type="line"/>
      <point x="152" y="1456" type="line"/>
      <point x="1103" y="1456" type="line"/>
      <point x="1103" y="1312" type="line"/>
    </contour>
  </outline>
</glyph>
<glyph name="P" format="2">
  <advance width="1241"/>
  <unicode hex="0050"/>
  <outline>
    <contour>
      <point x="152" y="1456" type="line"/>
      <point x="689" y="1456" type="line"/>
      <point x="829" y="1456"/>
      <point x="937" y="1402" type="qcurve"/>
      <point x="1051" y="1350"/>
      <point x="1111" y="1253" type="qcurve"/>
      <point x="1180" y="1156"/>
      <point x="1179" y="1033" type="qcurve"/>
      <point x="1182" y="910"/>
      <point x="1113" y="814" type="qcurve"/>
      <point x="1050" y="718"/>
      <point x="937" y="662" type="qcurve"/>
      <point x="829" y="608"/>
      <point x="689" y="607" type="qcurve"/>
      <point x="301" y="607" type="line"/>
      <point x="301" y="0" type="line"/>
      <point x="152" y="0" type="line"/>
    </contour>
    <contour>
      <point x="664" y="750" type="line"/>
      <point x="829" y="750"/>
      <point x="925" y="826" type="qcurve"/>
      <point x="1027" y="902"/>
      <point x="1027" y="1033" type="qcurve"/>
      <point x="1030" y="1164"/>
      <point x="927" y="1238" type="qcurve"/>
      <point x="828" y="1314"/>
      <point x="664" y="1312" type="qcurve"/>
      <point x="301" y="1312" type="line"/>
      <point x="301" y="750" type="line"/>
    </contour>
  </outline>
</glyph>
<glyph name="Q" format="2">
  <advance width="1683"/>
  <unicode hex="0051"/>
  <outline>
    <contour>
      <point x="845" y="1478" type="qcurve"/>
      <point x="1046" y="1480"/>
      <point x="1212" y="1378" type="qcurve"/>
      <point x="1382" y="1276"/>
      <point x="1484" y="1103" type="qcurve"/>
      <point x="1588" y="934"/>
      <point x="1585" y="728" type="qcurve"/>
      <point x="1588" y="527"/>
      <point x="1484" y="355" type="qcurve"/>
      <point x="1448" y="296"/>
      <point x="1402" y="240" type="qcurve"/>
      <point x="1550" y="109" type="line"/>
      <point x="1453" y="-2" type="line"/>
      <point x="1294" y="135" type="line"/>
      <point x="1258" y="108"/>
      <point x="1214" y="82" type="qcurve"/>
      <point x="1046" y="-20"/>
      <point x="845" y="-23" type="qcurve"/>
      <point x="649" y="-22"/>
      <point x="478" y="80" type="qcurve"/>
      <point x="308" y="184"/>
      <point x="203" y="355" type="qcurve"/>
      <point x="98" y="527"/>
      <point x="98" y="728" type="qcurve"/>
      <point x="98" y="932"/>
      <point x="203" y="1101" type="qcurve"/>
      <point x="308" y="1274"/>
      <point x="476" y="1376" type="qcurve"/>
      <point x="648" y="1481"/>
    </contour>
    <contour>
      <point x="845" y="1326" type="qcurve"/>
      <point x="692" y="1328"/>
      <point x="551" y="1246" type="qcurve"/>
      <point x="483" y="1204"/>
      <point x="430" y="1151" type="qcurve"/>
      <point x="378" y="1100"/>
      <point x="334" y="1029" type="qcurve"/>
      <point x="254" y="887"/>
      <point x="254" y="728" type="qcurve"/>
      <point x="251" y="574"/>
      <point x="332" y="433" type="qcurve"/>
      <point x="414" y="295"/>
      <point x="549" y="213" type="qcurve"/>
      <point x="690" y="127"/>
      <point x="845" y="129" type="qcurve"/>
      <point x="998" y="127"/>
      <point x="1136" y="213" type="qcurve"/>
      <point x="1160" y="226"/>
      <point x="1177" y="240" type="qcurve"/>
      <point x="984" y="408" type="line"/>
      <point x="1078" y="519" type="line"/>
      <point x="1287" y="338" type="line"/>
      <point x="1320" y="380"/>
      <point x="1353" y="433" type="qcurve"/>
      <point x="1436" y="574"/>
      <point x="1433" y="728" type="qcurve"/>
      <point x="1436" y="884"/>
      <point x="1353" y="1025" type="qcurve"/>
      <point x="1276" y="1164"/>
      <point x="1138" y="1244" type="qcurve"/>
      <point x="1000" y="1328"/>
    </contour>
  </outline>
</glyph>
<glyph name="T" format="2">
  <advance width="1214"/>
  <unicode hex="0054"/>
  <outline>
    <contour>
      <point x="531" y="1312" type="line"/>
      <point x="88" y="1312" type="line"/>
      <point x="88" y="1456" type="line"/>
      <point x="1128" y="1456" type="line"/>
      <point x="1128" y="1312" type="line"/>
      <point x="681" y="1312" type="line"/>
      <point x="681" y="0" type="line"/>
      <point x="531" y="0" type="line"/>
    </contour>
  </outline>
</glyph>
<glyph name="Z" format="2">
  <advance width="1315"/>
  <unicode hex="005A"/>
  <outline>
    <contour>
      <point x="111" y="119" type="line"/>
      <point x="1011" y="1312" type="line"/>
      <point x="127" y="1312" type="line"/>
      <point x="127" y="1456" type="line"/>
      <point x="1210" y="1456" type="line"/>
      <point x="1210" y="1324" type="line"/>
      <point x="316" y="141" type="line"/>
      <point x="1210" y="141" type="line"/>
      <point x="1210" y="0" type="line"/>
      <point x="111" y="0" type="line"/>
    </contour>
  </outline>
</glyph>
<glyph name="f" format="2">
  <advance width="731"/>
  <unicode hex="0066"/>
  <outline>
    <contour>
      <point x="227" y="996" type="line"/>
      <point x="227" y="1170" type="line"/>
      <point x="226" y="1252"/>
      <point x="258" y="1318" type="qcurve"/>
      <point x="290" y="1386"/>
      <point x="348" y="1427" type="qcurve"/>
      <point x="408" y="1469"/>
      <point x="489" y="1478" type="qcurve"/>
      <point x="572" y="1488"/>
      <point x="672" y="1453" type="qcurve"/>
      <point x="633" y="1313" type="line"/>
      <point x="588" y="1337"/>
      <point x="540" y="1337" type="qcurve"/>
      <point x="494" y="1338"/>
      <point x="456" y="1317" type="qcurve"/>
      <point x="418" y="1298"/>
      <point x="395" y="1259" type="qcurve"/>
      <point x="372" y="1221"/>
      <point x="372" y="1170" type="qcurve"/>
      <point x="372" y="996" type="line"/>
      <point x="620" y="996" type="line"/>
      <point x="620" y="868" type="line"/>
      <point x="372" y="868" type="line"/>
      <point x="372" y="0" type="line"/>
      <point x="227" y="0" type="line"/>
      <point x="227" y="868" type="line"/>
      <point x="70" y="868" type="line"/>
      <point x="70" y="996" type="line"/>
    </contour>
  </outline>
</glyph>
<glyph name="i" format="2">
  <advance width="434"/>
  <unicode hex="0069"/>
  <outline>
    <contour>
      <point x="217" y="1179" type="qcurve"/>
      <point x="178" y="1177"/>
      <point x="150" y="1207" type="qcurve"/>
      <point x="120" y="1239"/>
      <point x="121" y="1273" type="qcurve"/>
      <point x="120" y="1312"/>
      <point x="148" y="1341" type="qcurve"/>
      <point x="176" y="1369"/>
      <point x="217" y="1369" type="qcurve"/>
      <point x="256" y="1372"/>
      <point x="285" y="1343" type="qcurve"/>
      <point x="315" y="1312"/>
      <point x="312" y="1273" type="qcurve"/>
      <point x="316" y="1239"/>
      <point x="287" y="1207" type="qcurve"/>
      <point x="259" y="1177"/>
    </contour>
    <contour>
      <point x="144" y="996" type="line"/>
      <point x="289" y="996" type="line"/>
      <point x="289" y="0" type="line"/>
      <point x="144" y="0" type="line"/>
    </contour>
  </outline>
</glyph>
<glyph name="s" format="2">
  <advance width="983"/>
  <unicode hex="0073"/>
  <outline>
    <contour>
      <point x="850" y="869" type="qcurve"/>
      <point x="747" y="765" type="line"/>
      <point x="635" y="884"/>
      <point x="481" y="890" type="qcurve"/>
      <point x="303" y="884"/>
      <point x="286" y="746" type="qcurve"/>
      <point x="286" y="662"/>
      <point x="349" y="633" type="qcurve"/>
      <point x="413" y="604"/>
      <point x="528" y="566" type="qcurve"/>
      <point x="719" y="520"/>
      <point x="800" y="461" type="qcurve"/>
      <point x="881" y="403"/>
      <point x="881" y="275" type="qcurve"/>
      <point x="859" y="-8"/>
      <point x="536" y="-23" type="qcurve"/>
      <point x="256" y="-22"/>
      <point x="104" y="146" type="qcurve"/>
      <point x="208" y="252" type="line"/>
      <point x="331" y="105"/>
      <point x="536" y="107" type="qcurve"/>
      <point x="714" y="101"/>
      <point x="735" y="275" type="qcurve"/>
      <point x="735" y="390"/>
      <point x="489" y="435" type="qcurve"/>
      <point x="297" y="480"/>
      <point x="218" y="547" type="qcurve"/>
      <point x="140" y="616"/>
      <point x="140" y="746" type="qcurve"/>
      <point x="140" y="858"/>
      <point x="245" y="939" type="qcurve"/>
      <point x="350" y="1021"/>
      <point x="497" y="1021" type="qcurve"/>
      <point x="619" y="1014"/>
      <point x="696" y="978" type="qcurve"/>
      <point x="775" y="944"/>
    </contour>
  </outline>
</glyph>
<glyph name="t" format="2">
  <advance width="713"/>
  <unicode hex="0074"/>
  <outline>
    <contour>
      <point x="274" y="0" type="line"/>
      <point x="274" y="869" type="line"/>
      <point x="72" y="869" type="line"/>
      <point x="72" y="996" type="line"/>
      <point x="274" y="996" type="line"/>
      <point x="274" y="1267" type="line"/>
      <point x="417" y="1267" type="line"/>
      <point x="417" y="996" type="line"/>
      <point x="619" y="996" type="line"/>
      <point x="619" y="869" type="line"/>
      <point x="417" y="869" type="line"/>
      <point x="417" y="0" type="line"/>
    </contour>
  </outline>
</glyph>
<glyph name="v" format="2">
  <advance width="1083"/>
  <unicode hex="0076"/>
  <outline>
    <contour>
      <point x="53" y="996" type="line"/>
      <point x="213" y="996" type="line"/>
      <point x="545" y="170" type="line"/>
      <point x="871" y="996" type="line"/>
      <point x="1033" y="996" type="line"/>
      <point x="615" y="0" type="line"/>
      <point x="478" y="0" type="line"/>
    </contour>
  </outline>
</glyph>
<glyph name="x" format="2">
  <advance width="1061"/>
  <unicode hex="0078"/>
  <outline>
    <contour>
      <point x="831" y="0" type="line"/>
      <point x="530" y="398" type="line"/>
      <point x="231" y="0" type="line"/>
      <point x="61" y="0" type="line"/>
      <point x="446" y="508" type="line"/>
      <point x="77" y="996" type="line"/>
      <point x="247" y="996" type="line"/>
      <point x="530" y="621" type="line"/>
      <point x="815" y="996" type="line"/>
      <point x="985" y="996" type="line"/>
      <point x="616" y="508" type="line"/>
      <point x="999" y="0" type="line"/>
    </contour>
  </outline>
</glyph>
<glyph name="braceright" format="2">
  <advance width="758"/>
  <unicode hex="007D"/>
  <outline>
    <contour>
      <point x="504" y="578" type="qcurve"/>
      <point x="426" y="608"/>
      <point x="394" y="658" type="qcurve"/>
      <point x="362" y="714"/>
      <point x="359" y="797" type="qcurve"/>
      <point x="361" y="1142" type="line"/>
      <point x="361" y="1223"/>
      <point x="340" y="1263" type="qcurve"/>
      <point x="319" y="1306"/>
      <point x="262" y="1330" type="qcurve"/>
      <point x="206" y="1357"/>
      <point x="86" y="1371" type="qcurve"/>
      <point x="98" y="1476" type="line"/>
      <point x="246" y="1460"/>
      <point x="332" y="1421" type="qcurve"/>
      <point x="419" y="1387"/>
      <point x="453" y="1318" type="qcurve"/>
      <point x="486" y="1255"/>
      <point x="486" y="1150" type="qcurve"/>
      <point x="486" y="814" type="line"/>
      <point x="486" y="718"/>
      <point x="531" y="672" type="qcurve"/>
      <point x="572" y="632"/>
      <point x="674" y="631" type="qcurve"/>
      <point x="674" y="525" type="line"/>
      <point x="572" y="526"/>
      <point x="531" y="484" type="qcurve"/>
      <point x="486" y="440"/>
      <point x="486" y="342" type="qcurve"/>
      <point x="486" y="6" type="line"/>
      <point x="486" y="-98"/>
      <point x="453" y="-162" type="qcurve"/>
      <point x="419" y="-230"/>
      <point x="332" y="-264" type="qcurve"/>
      <point x="246" y="-302"/>
      <point x="98" y="-320" type="qcurve"/>
      <point x="86" y="-217" type="line"/>
      <point x="206" y="-201"/>
      <point x="262" y="-174" type="qcurve"/>
      <point x="319" y="-150"/>
      <point x="340" y="-107" type="qcurve"/>
      <point x="361" y="-66"/>
      <point x="361" y="14" type="qcurve"/>
      <point x="359" y="359" type="line"/>
      <point x="362" y="444"/>
      <point x="394" y="498" type="qcurve"/>
      <point x="430" y="548"/>
    </contour>
  </outline>
</glyph>
<glyph name="asciitilde" format="2">
  <advance width="858"/>
  <unicode hex="007E"/>
  <outline>
    <contour>
      <point x="554" y="578" type="qcurve"/>
      <point x="512" y="578"/>
      <point x="484" y="597" type="qcurve"/>
      <point x="456" y="616"/>
      <point x="406" y="650" type="qcurve"/>
      <point x="376" y="682"/>
      <point x="351" y="691" type="qcurve"/>
      <point x="333" y="706"/>
      <point x="303" y="705" type="qcurve"/>
      <point x="266" y="706"/>
      <point x="244" y="674" type="qcurve"/>
      <point x="222" y="644"/>
      <point x="209" y="574" type="qcurve"/>
      <point x="119" y="588" type="line"/>
      <point x="152" y="818"/>
      <point x="303" y="818" type="qcurve"/>
      <point x="345" y="818"/>
      <point x="373" y="800" type="qcurve"/>
      <point x="406" y="784"/>
      <point x="453" y="746" type="qcurve"/>
      <point x="486" y="718"/>
      <point x="506" y="703" type="qcurve"/>
      <point x="530" y="689"/>
      <point x="554" y="689" type="qcurve"/>
      <point x="593" y="689"/>
      <point x="615" y="722" type="qcurve"/>
      <point x="641" y="752"/>
      <point x="650" y="822" type="qcurve"/>
      <point x="738" y="808" type="line"/>
      <point x="708" y="578"/>
    </contour>
  </outline>
</glyph>
<glyph name="exclamdown" format="2">
  <advance width="524"/>
  <unicode hex="00A1"/>
  <outline>
    <contour>
      <point x="260" y="1021" type="qcurve"/>
      <point x="304" y="1022"/>
      <point x="334" y="990" type="qcurve"/>
      <point x="366" y="960"/>
      <point x="367" y="914" type="qcurve"/>
      <point x="366" y="874"/>
      <point x="334" y="843" type="qcurve"/>
      <point x="304" y="812"/>
      <point x="260" y="812" type="qcurve"/>
      <point x="220" y="812"/>
      <point x="189" y="843" type="qcurve"/>
      <point x="158" y="874"/>
      <point x="158" y="914" type="qcurve"/>
      <point x="156" y="960"/>
      <point x="187" y="990" type="qcurve"/>
      <point x="218" y="1022"/>
    </contour>
    <contour>
      <point x="346" y="-328" type="line"/>
      <point x="170" y="-328" type="line"/>
      <point x="209" y="625" type="line"/>
      <point x="310" y="625" type="line"/>
    </contour>
  </outline>
</glyph>
<glyph name="sterling" format="2">
  <advance width="1286"/>
  <unicode hex="00A3"/>
  <outline>
    <contour>
      <point x="1198" y="141" type="line"/>
      <point x="1198" y="0" type="line"/>
      <point x="104" y="0" type="line"/>
      <point x="104" y="69" type="line"/>
      <point x="245" y="144" type="line"/>
      <point x="245" y="557" type="line"/>
      <point x="110" y="557" type="line"/>
      <point x="110" y="687" type="line"/>
      <point x="245" y="687" type="line"/>
      <point x="245" y="982" type="line"/>
      <point x="245" y="1129"/>
      <point x="302" y="1240" type="qcurve"/>
      <point x="362" y="1354"/>
      <point x="464" y="1416" type="qcurve"/>
      <point x="569" y="1479"/>
      <point x="701" y="1479" type="qcurve"/>
      <point x="847" y="1482"/>
      <point x="970" y="1411" type="qcurve"/>
      <point x="1096" y="1348"/>
      <point x="1144" y="1246" type="qcurve"/>
      <point x="1033" y="1140" type="line"/>
      <point x="1009" y="1224"/>
      <point x="913" y="1282" type="qcurve"/>
      <point x="821" y="1345"/>
      <point x="701" y="1345" type="qcurve"/>
      <point x="567" y="1346"/>
      <point x="480" y="1241" type="qcurve"/>
      <point x="394" y="1144"/>
      <point x="394" y="982" type="qcurve"/>
      <point x="394" y="687" type="line"/>
      <point x="827" y="687" type="line"/>
      <point x="827" y="557" type="line"/>
      <point x="394" y="557" type="line"/>
      <point x="394" y="141" type="line"/>
    </contour>
  </outline>
</glyph>
<glyph name="dieresis" format="2">
  <advance width="791"/>
  <unicode hex="00A8"/>
  <unicode hex="0308"/>
  <outline>
    <contour>
      <point x="207" y="1328" type="qcurve"/>
      <point x="244" y="1328"/>
      <point x="270" y="1302" type="qcurve"/>
      <point x="297" y="1276"/>
      <point x="297" y="1238" type="qcurve"/>
      <point x="298" y="1202"/>
      <point x="271" y="1176" type="qcurve"/>
      <point x="244" y="1150"/>
      <point x="207" y="1150" type="qcurve"/>
      <point x="172" y="1150"/>
      <point x="145" y="1175" type="qcurve"/>
      <point x="119" y="1202"/>
      <point x="119" y="1238" type="qcurve"/>
      <point x="118" y="1275"/>
      <point x="144" y="1301" type="qcurve"/>
      <point x="171" y="1328"/>
    </contour>
    <contour>
      <point x="578" y="1328" type="qcurve"/>
      <point x="615" y="1328"/>
      <point x="641" y="1302" type="qcurve"/>
      <point x="668" y="1276"/>
      <point x="668" y="1240" type="qcurve"/>
      <point x="668" y="1204"/>
      <point x="642" y="1177" type="qcurve"/>
      <point x="616" y="1150"/>
      <point x="578" y="1150" type="qcurve"/>
      <point x="542" y="1150"/>
      <point x="517" y="1176" type="qcurve"/>
      <point x="492" y="1204"/>
      <point x="492" y="1240" type="qcurve"/>
      <point x="492" y="1275"/>
      <point x="516" y="1301" type="qcurve"/>
      <point x="542" y="1328"/>
    </contour>
  </outline>
</glyph>
<glyph name="periodcentered" format="2">
  <advance width="459"/>
  <unicode hex="00B7"/>
  <outline>
    <contour>
      <point x="232" y="426" type="qcurve"/>
      <point x="192" y="426"/>
      <point x="160" y="455" type="qcurve"/>
      <point x="132" y="485"/>
      <point x="131" y="525" type="qcurve"/>
      <point x="132" y="567"/>
      <point x="160" y="597" type="qcurve"/>
      <point x="192" y="628"/>
      <point x="232" y="625" type="qcurve"/>
      <point x="272" y="628"/>
      <point x="299" y="599" type="qcurve"/>
      <point x="330" y="569"/>
      <point x="330" y="525" type="qcurve"/>
      <point x="330" y="485"/>
      <point x="299" y="455" type="qcurve"/>
      <point x="272" y="426"/>
    </contour>
  </outline>
</glyph>
<glyph name="cedilla" format="2">
  <advance width="602"/>
  <unicode hex="00B8"/>
  <unicode hex="0327"/>
  <outline>
    <contour>
      <point x="346" y="-88" type="qcurve"/>
      <point x="406" y="-85"/>
      <point x="443" y="-121" type="qcurve"/>
      <point x="485" y="-156"/>
      <point x="482" y="-213" type="qcurve"/>
      <point x="482" y="-282"/>
      <point x="426" y="-326" type="qcurve"/>
      <point x="374" y="-368"/>
      <point x="291" y="-369" type="qcurve"/>
      <point x="246" y="-369"/>
      <point x="199" y="-355" type="qcurve"/>
      <point x="153" y="-337"/>
      <point x="121" y="-316" type="qcurve"/>
      <point x="158" y="-236" type="line"/>
      <point x="216" y="-278"/>
      <point x="285" y="-281" type="qcurve"/>
      <point x="326" y="-281"/>
      <point x="353" y="-260" type="qcurve"/>
      <point x="382" y="-238"/>
      <point x="379" y="-207" type="qcurve"/>
      <point x="382" y="-175"/>
      <point x="361" y="-160" type="qcurve"/>
      <point x="340" y="-139"/>
      <point x="303" y="-139" type="qcurve"/>
      <point x="270" y="-138"/>
      <point x="240" y="-162" type="qcurve"/>
      <point x="209" y="-129" type="line"/>
      <point x="273" y="20" type="line"/>
      <point x="371" y="20" type="line"/>
      <point x="326" y="-90" type="line"/>
      <point x="334" y="-86"/>
    </contour>
  </outline>
</glyph>
<glyph name="guillemotright" format="2">
  <advance width="1006"/>
  <unicode hex="00BB"/>
  <outline>
    <contour>
      <point x="98" y="133" type="line"/>
      <point x="383" y="486" type="line"/>
      <point x="98" y="834" type="line"/>
      <point x="230" y="865" type="line"/>
      <point x="539" y="484" type="line"/>
      <point x="230" y="98" type="line"/>
    </contour>
    <contour>
      <point x="484" y="133" type="line"/>
      <point x="765" y="486" type="line"/>
      <point x="484" y="834" type="line"/>
      <point x="611" y="865" type="line"/>
      <point x="920" y="484" type="line"/>
      <point x="611" y="98" type="line"/>
    </contour>
  </outline>
</glyph>
<glyph name="questiondown" format="2">
  <advance width="977"/>
  <unicode hex="00BF"/>
  <outline>
    <contour>
      <point x="545" y="1021" type="qcurve"/>
      <point x="590" y="1022"/>
      <point x="621" y="990" type="qcurve"/>
      <point x="652" y="960"/>
      <point x="652" y="914" type="qcurve"/>
      <point x="652" y="874"/>
      <point x="621" y="843" type="qcurve"/>
      <point x="590" y="812"/>
      <point x="545" y="812" type="qcurve"/>
      <point x="504" y="812"/>
      <point x="476" y="843" type="qcurve"/>
      <point x="446" y="874"/>
      <point x="445" y="914" type="qcurve"/>
      <point x="444" y="960"/>
      <point x="474" y="990" type="qcurve"/>
      <point x="504" y="1022"/>
    </contour>
    <contour>
      <point x="623" y="264" type="line"/>
      <point x="512" y="255"/>
      <point x="424" y="219" type="qcurve"/>
      <point x="340" y="188"/>
      <point x="289" y="131" type="qcurve"/>
      <point x="238" y="80"/>
      <point x="238" y="16" type="qcurve"/>
      <point x="238" y="-41"/>
      <point x="269" y="-98" type="qcurve"/>
      <point x="304" y="-150"/>
      <point x="361" y="-180" type="qcurve"/>
      <point x="421" y="-213"/>
      <point x="496" y="-213" type="qcurve"/>
      <point x="600" y="-212"/>
      <point x="676" y="-166" type="qcurve"/>
      <point x="758" y="-116"/>
      <point x="828" y="-31" type="qcurve"/>
      <point x="925" y="-129" type="line"/>
      <point x="750" y="-348"/>
      <point x="488" y="-351" type="qcurve"/>
      <point x="370" y="-348"/>
      <point x="279" y="-303" type="qcurve"/>
      <point x="189" y="-258"/>
      <point x="135" y="-176" type="qcurve"/>
      <point x="86" y="-94"/>
      <point x="86" y="2" type="qcurve"/>
      <point x="86" y="86"/>
      <point x="133" y="164" type="qcurve"/>
      <point x="184" y="242"/>
      <point x="271" y="295" type="qcurve"/>
      <point x="361" y="353"/>
      <point x="472" y="377" type="qcurve"/>
      <point x="472" y="625" type="line"/>
      <point x="623" y="625" type="line"/>
    </contour>
  </outline>
</glyph>
<glyph name="Atilde" format="2">
  <advance width="1352"/>
  <unicode hex="00C3"/>
  <outline>
    <contour>
      <point x="596" y="1456" type="line"/>
      <point x="760" y="1456" type="line"/>
      <point x="1288" y="0" type="line"/>
      <point x="1127" y="0" type="line"/>
      <point x="977" y="418" type="line"/>
      <point x="378" y="418" type="line"/>
      <point x="225" y="0" type="line"/>
      <point x="63" y="0" type="line"/>
    </contour>
    <contour>
      <point x="678" y="1234" type="line"/>
      <point x="429" y="558" type="line"/>
      <point x="926" y="558" type="line"/>
    </contour>
    <contour>
      <point x="799" y="1562" type="qcurve"/>
      <point x="757" y="1560"/>
      <point x="727" y="1578" type="qcurve"/>
      <point x="699" y="1600"/>
      <point x="649" y="1634" type="qcurve"/>
      <point x="621" y="1666"/>
      <point x="596" y="1677" type="qcurve"/>
      <point x="575" y="1692"/>
      <point x="548" y="1689" type="qcurve"/>
      <point x="515" y="1690"/>
      <point x="489" y="1658" type="qcurve"/>
      <point x="465" y="1628"/>
      <point x="452" y="1558" type="qcurve"/>
      <point x="364" y="1570" type="line"/>
      <point x="395" y="1800"/>
      <point x="548" y="1800" type="qcurve"/>
      <point x="587" y="1802"/>
      <point x="618" y="1784" type="qcurve"/>
      <point x="651" y="1766"/>
      <point x="698" y="1728" type="qcurve"/>
      <point x="731" y="1700"/>
      <point x="751" y="1687" type="qcurve"/>
      <point x="777" y="1675"/>
      <point x="799" y="1675" type="qcurve"/>
      <point x="838" y="1676"/>
      <point x="860" y="1706" type="qcurve"/>
      <point x="883" y="1736"/>
      <point x="895" y="1804" type="qcurve"/>
      <point x="983" y="1792" type="line"/>
      <point x="953" y="1564"/>
    </contour>
  </outline>
</glyph>
<glyph name="Adieresis" format="2">
  <advance width="1352"/>
  <unicode hex="00C4"/>
  <outline>
    <contour>
      <point x="596" y="1456" type="line"/>
      <point x="760" y="1456" type="line"/>
      <point x="1288" y="0" type="line"/>
      <point x="1127" y="0" type="line"/>
      <point x="977" y="418" type="line"/>
      <point x="378" y="418" type="line"/>
      <point x="225" y="0" type="line"/>
      <point x="63" y="0" type="line"/>
    </contour>
    <contour>
      <point x="678" y="1234" type="line"/>
      <point x="429" y="558" type="line"/>
      <point x="926" y="558" type="line"/>
    </contour>
    <contour>
      <point x="487" y="1736" type="qcurve"/>
      <point x="524" y="1736"/>
      <point x="550" y="1710" type="qcurve"/>
      <point x="577" y="1684"/>
      <point x="577" y="1646" type="qcurve"/>
      <point x="577" y="1610"/>
      <point x="551" y="1584" type="qcurve"/>
      <point x="525" y="1558"/>
      <point x="487" y="1558" type="qcurve"/>
      <point x="451" y="1558"/>
      <point x="425" y="1583" type="qcurve"/>
      <point x="399" y="1610"/>
      <point x="399" y="1646" type="qcurve"/>
      <point x="399" y="1683"/>
      <point x="424" y="1709" type="qcurve"/>
      <point x="451" y="1736"/>
    </contour>
    <contour>
      <point x="858" y="1736" type="qcurve"/>
      <point x="895" y="1736"/>
      <point x="921" y="1710" type="qcurve"/>
      <point x="948" y="1684"/>
      <point x="948" y="1648" type="qcurve"/>
      <point x="949" y="1612"/>
      <point x="922" y="1585" type="qcurve"/>
      <point x="895" y="1558"/>
      <point x="858" y="1558" type="qcurve"/>
      <point x="823" y="1558"/>
      <point x="797" y="1584" type="qcurve"/>
      <point x="773" y="1612"/>
      <point x="772" y="1648" type="qcurve"/>
      <point x="772" y="1683"/>
      <point x="796" y="1709" type="qcurve"/>
      <point x="822" y="1736"/>
    </contour>
  </outline>
</glyph>
<glyph name="AE" format="2">
  <advance width="2181"/>
  <unicode hex="00C6"/>
  <outline>
    <contour>
      <point x="1179" y="1316" type="line"/>
      <point x="1181" y="816" type="line"/>
      <point x="1978" y="816" type="line"/>
      <point x="1980" y="672" type="line"/>
      <point x="1179" y="672" type="line"/>
      <point x="1181" y="148" type="line"/>
      <point x="2064" y="148" type="line"/>
      <point x="2062" y="2" type="line"/>
      <point x="1023" y="0" type="line"/>
      <point x="1025" y="336" type="line"/>
      <point x="451" y="336" type="line"/>
      <point x="258" y="0" type="line"/>
      <point x="80" y="0" type="line"/>
      <point x="918" y="1456" type="line"/>
      <point x="2064" y="1456" type="line"/>
      <point x="2062" y="1314" type="line"/>
    </contour>
    <contour>
      <point x="1023" y="484" type="line"/>
      <point x="1025" y="1335" type="line"/>
      <point x="531" y="484" type="line"/>
    </contour>
  </outline>
</glyph>
<glyph name="Eacute" format="2">
  <advance width="1208"/>
  <unicode hex="00C9"/>
  <outline>
    <contour>
      <point x="303" y="1312" type="line"/>
      <point x="303" y="812" type="line"/>
      <point x="1025" y="812" type="line"/>
      <point x="1025" y="670" type="line"/>
      <point x="303" y="670" type="line"/>
      <point x="303" y="141" type="line"/>
      <point x="1103" y="141" type="line"/>
      <point x="1103" y="0" type="line"/>
      <point x="152" y="0" type="line"/>
      <point x="152" y="1456" type="line"/>
      <point x="1103" y="1456" type="line"/>
      <point x="1103" y="1312" type="line"/>
    </contour>
    <contour>
      <point x="668" y="1835" type="line"/>
      <point x="820" y="1800" type="line"/>
      <point x="547" y="1558" type="line"/>
      <point x="435" y="1558" type="line"/>
    </contour>
  </outline>
</glyph>
<glyph name="Idieresis" format="2">
  <advance width="455"/>
  <unicode hex="00CF"/>
  <outline>
    <contour>
      <point x="152" y="1456" type="line"/>
      <point x="301" y="1456" type="line"/>
      <point x="301" y="0" type="line"/>
      <point x="152" y="0" type="line"/>
    </contour>
    <contour>
      <point x="39" y="1736" type="qcurve"/>
      <point x="76" y="1736"/>
      <point x="102" y="1710" type="qcurve"/>
      <point x="129" y="1684"/>
      <point x="129" y="1646" type="qcurve"/>
      <point x="130" y="1610"/>
      <point x="103" y="1584" type="qcurve"/>
      <point x="76" y="1558"/>
      <point x="39" y="1558" type="qcurve"/>
      <point x="4" y="1558"/>
      <point x="-23" y="1583" type="qcurve"/>
      <point x="-49" y="1610"/>
      <point x="-49" y="1646" type="qcurve"/>
      <point x="-50" y="1683"/>
      <point x="-24" y="1709" type="qcurve"/>
      <point x="3" y="1736"/>
    </contour>
    <contour>
      <point x="410" y="1736" type="qcurve"/>
      <point x="447" y="1736"/>
      <point x="473" y="1710" type="qcurve"/>
      <point x="500" y="1684"/>
      <point x="500" y="1648" type="qcurve"/>
      <point x="500" y="1612"/>
      <point x="474" y="1585" type="qcurve"/>
      <point x="448" y="1558"/>
      <point x="410" y="1558" type="qcurve"/>
      <point x="374" y="1558"/>
      <point x="349" y="1584" type="qcurve"/>
      <point x="324" y="1612"/>
      <point x="324" y="1648" type="qcurve"/>
      <point x="324" y="1683"/>
      <point x="348" y="1709" type="qcurve"/>
      <point x="374" y="1736"/>
    </contour>
  </outline>
</glyph>
<glyph name="Ntilde" format="2">
  <advance width="1565"/>
  <unicode hex="00D1"/>
  <outline>
    <contour>
      <point x="180" y="1456" type="line"/>
      <point x="332" y="1456" type="line"/>
      <point x="1234" y="248" type="line"/>
      <point x="1234" y="1456" type="line"/>
      <point x="1384" y="1456" type="line"/>
      <point x="1384" y="0" type="line"/>
      <point x="1234" y="0" type="line"/>
      <point x="332" y="1210" type="line"/>
      <point x="332" y="0" type="line"/>
      <point x="180" y="0" type="line"/>
    </contour>
    <contour>
      <point x="908" y="1562" type="qcurve"/>
      <point x="868" y="1560"/>
      <point x="836" y="1578" type="qcurve"/>
      <point x="809" y="1600"/>
      <point x="758" y="1634" type="qcurve"/>
      <point x="731" y="1666"/>
      <point x="705" y="1677" type="qcurve"/>
      <point x="685" y="1692"/>
      <point x="658" y="1689" type="qcurve"/>
      <point x="624" y="1690"/>
      <point x="599" y="1658" type="qcurve"/>
      <point x="574" y="1628"/>
      <point x="562" y="1558" type="qcurve"/>
      <point x="474" y="1570" type="line"/>
      <point x="504" y="1800"/>
      <point x="658" y="1800" type="qcurve"/>
      <point x="698" y="1802"/>
      <point x="728" y="1784" type="qcurve"/>
      <point x="762" y="1766"/>
      <point x="808" y="1728" type="qcurve"/>
      <point x="840" y="1700"/>
      <point x="861" y="1687" type="qcurve"/>
      <point x="887" y="1675"/>
      <point x="908" y="1675" type="qcurve"/>
      <point x="948" y="1676"/>
      <point x="970" y="1706" type="qcurve"/>
      <point x="992" y="1736"/>
      <point x="1004" y="1804" type="qcurve"/>
      <point x="1093" y="1792" type="line"/>
      <point x="1062" y="1564"/>
    </contour>
  </outline>
</glyph>
<glyph name="Yacute" format="2">
  <advance width="1395"/>
  <unicode hex="00DD"/>
  <outline>
    <contour>
      <point x="621" y="594" type="line"/>
      <point x="35" y="1456" type="line"/>
      <point x="221" y="1456" type="line"/>
      <point x="705" y="750" type="line"/>
      <point x="1181" y="1456" type="line"/>
      <point x="1361" y="1456" type="line"/>
      <point x="779" y="594" type="line"/>
      <point x="779" y="0" type="line"/>
      <point x="621" y="0" type="line"/>
    </contour>
    <contour>
      <point x="740" y="1835" type="line"/>
      <point x="892" y="1800" type="line"/>
      <point x="619" y="1558" type="line"/>
      <point x="506" y="1558" type="line"/>
    </contour>
  </outline>
</glyph>
<glyph name="Thorn" format="2">
  <advance width="1241"/>
  <unicode hex="00DE"/>
  <outline>
    <contour>
      <point x="152" y="1324" type="line"/>
      <point x="305" y="1324" type="line"/>
      <point x="305" y="1091" type="line"/>
      <point x="689" y="1091" type="line"/>
      <point x="829" y="1091"/>
      <point x="937" y="1037" type="qcurve"/>
      <point x="1051" y="985"/>
      <point x="1111" y="886" type="qcurve"/>
      <point x="1180" y="790"/>
      <point x="1179" y="668" type="qcurve"/>
      <point x="1182" y="545"/>
      <point x="1113" y="449" type="qcurve"/>
      <point x="1050" y="352"/>
      <point x="937" y="295" type="qcurve"/>
      <point x="829" y="242"/>
      <point x="689" y="244" type="qcurve"/>
      <point x="301" y="244" type="line"/>
      <point x="301" y="0" type="line"/>
      <point x="152" y="0" type="line"/>
    </contour>
    <contour>
      <point x="664" y="385" type="line"/>
      <point x="829" y="386"/>
      <point x="925" y="461" type="qcurve"/>
      <point x="1027" y="538"/>
      <point x="1027" y="668" type="qcurve"/>
      <point x="1030" y="800"/>
      <point x="927" y="873" type="qcurve"/>
      <point x="828" y="952"/>
      <point x="664" y="949" type="qcurve"/>
      <point x="301" y="949" type="line"/>
      <point x="301" y="385" type="line"/>
    </contour>
  </outline>
</glyph>
<glyph name="atilde" format="2">
  <advance width="1229"/>
  <unicode hex="00E3"/>
  <outline>
    <contour>
      <point x="590" y="105" type="qcurve"/>
      <point x="688" y="108"/>
      <point x="763" y="156" type="qcurve"/>
      <point x="840" y="206"/>
      <point x="882" y="293" type="qcurve"/>
      <point x="926" y="386"/>
      <point x="925" y="498" type="qcurve"/>
      <point x="926" y="615"/>
      <point x="882" y="701" type="qcurve"/>
      <point x="840" y="792"/>
      <point x="763" y="840" type="qcurve"/>
      <point x="688" y="892"/>
      <point x="590" y="890" type="qcurve"/>
      <point x="496" y="892"/>
      <point x="418" y="840" type="qcurve"/>
      <point x="340" y="792"/>
      <point x="297" y="701" type="qcurve"/>
      <point x="256" y="615"/>
      <point x="256" y="498" type="qcurve"/>
      <point x="256" y="386"/>
      <point x="297" y="295" type="qcurve"/>
      <point x="341" y="208"/>
      <point x="416" y="156" type="qcurve"/>
      <point x="497" y="108"/>
    </contour>
    <contour>
      <point x="1070" y="996" type="line"/>
      <point x="1070" y="0" type="line"/>
      <point x="925" y="0" type="line"/>
      <point x="925" y="187" type="line"/>
      <point x="869" y="91"/>
      <point x="776" y="34" type="qcurve"/>
      <point x="684" y="-23"/>
      <point x="564" y="-23" type="qcurve"/>
      <point x="435" y="-25"/>
      <point x="330" y="43" type="qcurve"/>
      <point x="226" y="112"/>
      <point x="164" y="230" type="qcurve"/>
      <point x="106" y="354"/>
      <point x="102" y="498" type="qcurve"/>
      <point x="106" y="648"/>
      <point x="164" y="767" type="qcurve"/>
      <point x="226" y="889"/>
      <point x="328" y="953" type="qcurve"/>
      <point x="436" y="1022"/>
      <point x="564" y="1021" type="qcurve"/>
      <point x="681" y="1022"/>
      <point x="774" y="966" type="qcurve"/>
      <point x="868" y="910"/>
      <point x="925" y="810" type="qcurve"/>
      <point x="925" y="996" type="line"/>
    </contour>
    <contour>
      <point x="711" y="1128" type="qcurve"/>
      <point x="670" y="1126"/>
      <point x="640" y="1144" type="qcurve"/>
      <point x="612" y="1165"/>
      <point x="562" y="1199" type="qcurve"/>
      <point x="534" y="1230"/>
      <point x="508" y="1242" type="qcurve"/>
      <point x="488" y="1258"/>
      <point x="461" y="1255" type="qcurve"/>
      <point x="426" y="1256"/>
      <point x="402" y="1224" type="qcurve"/>
      <point x="378" y="1194"/>
      <point x="365" y="1123" type="qcurve"/>
      <point x="277" y="1136" type="line"/>
      <point x="308" y="1366"/>
      <point x="461" y="1365" type="qcurve"/>
      <point x="500" y="1368"/>
      <point x="531" y="1349" type="qcurve"/>
      <point x="564" y="1330"/>
      <point x="611" y="1294" type="qcurve"/>
      <point x="644" y="1266"/>
      <point x="664" y="1253" type="qcurve"/>
      <point x="690" y="1240"/>
      <point x="711" y="1240" type="qcurve"/>
      <point x="750" y="1240"/>
      <point x="773" y="1271" type="qcurve"/>
      <point x="796" y="1303"/>
      <point x="808" y="1369" type="qcurve"/>
      <point x="896" y="1357" type="line"/>
      <point x="866" y="1131"/>
    </contour>
  </outline>
</glyph>
<glyph name="adieresis" format="2">
  <advance width="1229"/>
  <unicode hex="00E4"/>
  <outline>
    <contour>
      <point x="590" y="105" type="qcurve"/>
      <point x="688" y="108"/>
      <point x="763" y="156" type="qcurve"/>
      <point x="840" y="206"/>
      <point x="882" y="293" type="qcurve"/>
      <point x="926" y="386"/>
      <point x="925" y="498" type="qcurve"/>
      <point x="926" y="615"/>
      <point x="882" y="701" type="qcurve"/>
      <point x="840" y="792"/>
      <point x="763" y="840" type="qcurve"/>
      <point x="688" y="892"/>
      <point x="590" y="890" type="qcurve"/>
      <point x="496" y="892"/>
      <point x="418" y="840" type="qcurve"/>
      <point x="340" y="792"/>
      <point x="297" y="701" type="qcurve"/>
      <point x="256" y="615"/>
      <point x="256" y="498" type="qcurve"/>
      <point x="256" y="386"/>
      <point x="297" y="295" type="qcurve"/>
      <point x="341" y="208"/>
      <point x="416" y="156" type="qcurve"/>
      <point x="497" y="108"/>
    </contour>
    <contour>
      <point x="1070" y="996" type="line"/>
      <point x="1070" y="0" type="line"/>
      <point x="925" y="0" type="line"/>
      <point x="925" y="187" type="line"/>
      <point x="869" y="91"/>
      <point x="776" y="34" type="qcurve"/>
      <point x="684" y="-23"/>
      <point x="564" y="-23" type="qcurve"/>
      <point x="435" y="-25"/>
      <point x="330" y="43" type="qcurve"/>
      <point x="226" y="112"/>
      <point x="164" y="230" type="qcurve"/>
      <point x="106" y="354"/>
      <point x="102" y="498" type="qcurve"/>
      <point x="106" y="648"/>
      <point x="164" y="767" type="qcurve"/>
      <point x="226" y="889"/>
      <point x="328" y="953" type="qcurve"/>
      <point x="436" y="1022"/>
      <point x="564" y="1021" type="qcurve"/>
      <point x="681" y="1022"/>
      <point x="774" y="966" type="qcurve"/>
      <point x="868" y="910"/>
      <point x="925" y="810" type="qcurve"/>
      <point x="925" y="996" type="line"/>
    </contour>
    <contour>
      <point x="400" y="1302" type="qcurve"/>
      <point x="437" y="1302"/>
      <point x="463" y="1275" type="qcurve"/>
      <point x="490" y="1248"/>
      <point x="490" y="1212" type="qcurve"/>
      <point x="490" y="1176"/>
      <point x="464" y="1149" type="qcurve"/>
      <point x="438" y="1123"/>
      <point x="400" y="1123" type="qcurve"/>
      <point x="364" y="1123"/>
      <point x="338" y="1149" type="qcurve"/>
      <point x="312" y="1176"/>
      <point x="312" y="1212" type="qcurve"/>
      <point x="312" y="1248"/>
      <point x="337" y="1275" type="qcurve"/>
      <point x="364" y="1302"/>
    </contour>
    <contour>
      <point x="771" y="1302" type="qcurve"/>
      <point x="808" y="1302"/>
      <point x="834" y="1275" type="qcurve"/>
      <point x="861" y="1248"/>
      <point x="861" y="1214" type="qcurve"/>
      <point x="862" y="1178"/>
      <point x="835" y="1150" type="qcurve"/>
      <point x="808" y="1123"/>
      <point x="771" y="1123" type="qcurve"/>
      <point x="736" y="1123"/>
      <point x="710" y="1150" type="qcurve"/>
      <point x="686" y="1178"/>
      <point x="685" y="1214" type="qcurve"/>
      <point x="685" y="1248"/>
      <point x="709" y="1275" type="qcurve"/>
      <point x="735" y="1302"/>
    </contour>
  </outline>
</glyph>
<glyph name="aring" format="2">
  <advance width="1229"/>
  <unicode hex="00E5"/>
  <outline>
    <contour>
      <point x="590" y="105" type="qcurve"/>
      <point x="688" y="108"/>
      <point x="763" y="156" type="qcurve"/>
      <point x="840" y="206"/>
      <point x="882" y="293" type="qcurve"/>
      <point x="926" y="386"/>
      <point x="925" y="498" type="qcurve"/>
      <point x="926" y="615"/>
      <point x="882" y="701" type="qcurve"/>
      <point x="840" y="792"/>
      <point x="763" y="840" type="qcurve"/>
      <point x="688" y="892"/>
      <point x="590" y="890" type="qcurve"/>
      <point x="496" y="892"/>
      <point x="418" y="840" type="qcurve"/>
      <point x="340" y="792"/>
      <point x="297" y="701" type="qcurve"/>
      <point x="256" y="615"/>
      <point x="256" y="498" type="qcurve"/>
      <point x="256" y="386"/>
      <point x="297" y="295" type="qcurve"/>
      <point x="341" y="208"/>
      <point x="416" y="156" type="qcurve"/>
      <point x="497" y="108"/>
    </contour>
    <contour>
      <point x="1070" y="996" type="line"/>
      <point x="1070" y="0" type="line"/>
      <point x="925" y="0" type="line"/>
      <point x="925" y="187" type="line"/>
      <point x="869" y="91"/>
      <point x="776" y="34" type="qcurve"/>
      <point x="684" y="-23"/>
      <point x="564" y="-23" type="qcurve"/>
      <point x="435" y="-25"/>
      <point x="330" y="43" type="qcurve"/>
      <point x="226" y="112"/>
      <point x="164" y="230" type="qcurve"/>
      <point x="106" y="354"/>
      <point x="102" y="498" type="qcurve"/>
      <point x="106" y="648"/>
      <point x="164" y="767" type="qcurve"/>
      <point x="226" y="889"/>
      <point x="328" y="953" type="qcurve"/>
      <point x="436" y="1022"/>
      <point x="564" y="1021" type="qcurve"/>
      <point x="681" y="1022"/>
      <point x="774" y="966" type="qcurve"/>
      <point x="868" y="910"/>
      <point x="925" y="810" type="qcurve"/>
      <point x="925" y="996" type="line"/>
    </contour>
    <contour>
      <point x="586" y="1123" type="qcurve"/>
      <point x="505" y="1124"/>
      <point x="445" y="1181" type="qcurve"/>
      <point x="388" y="1238"/>
      <point x="387" y="1322" type="qcurve"/>
      <point x="388" y="1406"/>
      <point x="445" y="1462" type="qcurve"/>
      <point x="505" y="1522"/>
      <point x="586" y="1521" type="qcurve"/>
      <point x="672" y="1522"/>
      <point x="728" y="1462" type="qcurve"/>
      <point x="785" y="1406"/>
      <point x="785" y="1322" type="qcurve"/>
      <point x="785" y="1238"/>
      <point x="728" y="1181" type="qcurve"/>
      <point x="672" y="1124"/>
    </contour>
    <contour>
      <point x="586" y="1210" type="qcurve"/>
      <point x="632" y="1210"/>
      <point x="666" y="1242" type="qcurve"/>
      <point x="702" y="1276"/>
      <point x="701" y="1322" type="qcurve"/>
      <point x="701" y="1370"/>
      <point x="668" y="1402" type="qcurve"/>
      <point x="634" y="1435"/>
      <point x="586" y="1435" type="qcurve"/>
      <point x="541" y="1436"/>
      <point x="508" y="1404" type="qcurve"/>
      <point x="476" y="1370"/>
      <point x="474" y="1322" type="qcurve"/>
      <point x="474" y="1276"/>
      <point x="506" y="1242" type="qcurve"/>
      <point x="542" y="1210"/>
    </contour>
  </outline>
</glyph>
<glyph name="ae" format="2">
  <advance width="1864"/>
  <unicode hex="00E6"/>
  <outline>
    <contour>
      <point x="1314" y="105" type="qcurve"/>
      <point x="1402" y="108"/>
      <point x="1492" y="139" type="qcurve"/>
      <point x="1585" y="175"/>
      <point x="1630" y="226" type="qcurve"/>
      <point x="1718" y="131" type="line"/>
      <point x="1654" y="62"/>
      <point x="1540" y="20" type="qcurve"/>
      <point x="1426" y="-20"/>
      <point x="1316" y="-23" type="qcurve"/>
      <point x="1192" y="-25"/>
      <point x="1078" y="37" type="qcurve"/>
      <point x="968" y="102"/>
      <point x="898" y="207" type="qcurve"/>
      <point x="834" y="105"/>
      <point x="722" y="41" type="qcurve"/>
      <point x="616" y="-25"/>
      <point x="482" y="-23" type="qcurve"/>
      <point x="304" y="-25"/>
      <point x="199" y="59" type="qcurve"/>
      <point x="98" y="146"/>
      <point x="98" y="293" type="qcurve"/>
      <point x="96" y="391"/>
      <point x="148" y="467" type="qcurve"/>
      <point x="202" y="545"/>
      <point x="291" y="584" type="qcurve"/>
      <point x="384" y="628"/>
      <point x="488" y="627" type="qcurve"/>
      <point x="638" y="627"/>
      <point x="812" y="570" type="qcurve"/>
      <point x="812" y="607" type="line"/>
      <point x="814" y="728"/>
      <point x="750" y="812" type="qcurve"/>
      <point x="690" y="899"/>
      <point x="541" y="896" type="qcurve"/>
      <point x="476" y="899"/>
      <point x="406" y="873" type="qcurve"/>
      <point x="336" y="850"/>
      <point x="252" y="806" type="qcurve"/>
      <point x="193" y="922" type="line"/>
      <point x="386" y="1021"/>
      <point x="551" y="1021" type="qcurve"/>
      <point x="686" y="1022"/>
      <point x="775" y="968" type="qcurve"/>
      <point x="870" y="914"/>
      <point x="912" y="820" type="qcurve"/>
      <point x="980" y="914"/>
      <point x="1082" y="966" type="qcurve"/>
      <point x="1187" y="1022"/>
      <point x="1304" y="1021" type="qcurve"/>
      <point x="1526" y="1021"/>
      <point x="1650" y="865" type="qcurve"/>
      <point x="1778" y="709"/>
      <point x="1775" y="445" type="qcurve"/>
      <point x="959" y="445" type="line"/>
      <point x="977" y="295"/>
      <point x="1070" y="201" type="qcurve"/>
      <point x="1168" y="108"/>
    </contour>
    <contour>
      <point x="1308" y="890" type="qcurve"/>
      <point x="1174" y="892"/>
      <point x="1076" y="804" type="qcurve"/>
      <point x="982" y="718"/>
      <point x="961" y="572" type="qcurve"/>
      <point x="1634" y="572" type="line"/>
      <point x="1620" y="718"/>
      <point x="1535" y="802" type="qcurve"/>
      <point x="1456" y="890"/>
    </contour>
    <contour>
      <point x="504" y="102" type="qcurve"/>
      <point x="586" y="102"/>
      <point x="656" y="141" type="qcurve"/>
      <point x="730" y="184"/>
      <point x="769" y="250" type="qcurve"/>
      <point x="812" y="316"/>
      <point x="812" y="392" type="qcurve"/>
      <point x="812" y="465" type="line"/>
      <point x="664" y="504"/>
      <point x="510" y="504" type="qcurve"/>
      <point x="399" y="504"/>
      <point x="318" y="447" type="qcurve"/>
      <point x="238" y="390"/>
      <point x="238" y="299" type="qcurve"/>
      <point x="238" y="210"/>
      <point x="308" y="156" type="qcurve"/>
      <point x="380" y="102"/>
    </contour>
  </outline>
</glyph>
<glyph name="ccedilla" format="2">
  <advance width="1044"/>
  <unicode hex="00E7"/>
  <outline>
    <contour>
      <point x="609" y="-23" type="qcurve"/>
      <point x="473" y="-20"/>
      <point x="353" y="49" type="qcurve"/>
      <point x="236" y="120"/>
      <point x="164" y="240" type="qcurve"/>
      <point x="94" y="362"/>
      <point x="94" y="498" type="qcurve"/>
      <point x="94" y="640"/>
      <point x="162" y="758" type="qcurve"/>
      <point x="234" y="882"/>
      <point x="353" y="949" type="qcurve"/>
      <point x="473" y="1021"/>
      <point x="609" y="1021" type="qcurve"/>
      <point x="710" y="1021"/>
      <point x="800" y="982" type="qcurve"/>
      <point x="894" y="943"/>
      <point x="964" y="873" type="qcurve"/>
      <point x="865" y="775" type="line"/>
      <point x="817" y="831"/>
      <point x="748" y="861" type="qcurve"/>
      <point x="685" y="890"/>
      <point x="609" y="890" type="qcurve"/>
      <point x="512" y="892"/>
      <point x="428" y="838" type="qcurve"/>
      <point x="344" y="786"/>
      <point x="293" y="693" type="qcurve"/>
      <point x="246" y="603"/>
      <point x="246" y="498" type="qcurve"/>
      <point x="244" y="394"/>
      <point x="291" y="303" type="qcurve"/>
      <point x="342" y="214"/>
      <point x="426" y="160" type="qcurve"/>
      <point x="513" y="108"/>
      <point x="609" y="105" type="qcurve"/>
      <point x="686" y="105"/>
      <point x="750" y="135" type="qcurve"/>
      <point x="818" y="168"/>
      <point x="869" y="228" type="qcurve"/>
      <point x="970" y="129" type="line"/>
      <point x="900" y="60"/>
      <point x="806" y="18" type="qcurve"/>
      <point x="714" y="-22"/>
    </contour>
    <contour>
      <point x="578" y="-234" type="qcurve"/>
      <point x="638" y="-232"/>
      <point x="674" y="-266" type="qcurve"/>
      <point x="716" y="-300"/>
      <point x="713" y="-359" type="qcurve"/>
      <point x="714" y="-428"/>
      <point x="658" y="-472" type="qcurve"/>
      <point x="606" y="-514"/>
      <point x="523" y="-515" type="qcurve"/>
      <point x="478" y="-515"/>
      <point x="430" y="-500" type="qcurve"/>
      <point x="384" y="-484"/>
      <point x="353" y="-461" type="qcurve"/>
      <point x="390" y="-381" type="line"/>
      <point x="448" y="-423"/>
      <point x="517" y="-426" type="qcurve"/>
      <point x="558" y="-426"/>
      <point x="584" y="-406" type="qcurve"/>
      <point x="614" y="-382"/>
      <point x="611" y="-353" type="qcurve"/>
      <point x="614" y="-321"/>
      <point x="592" y="-305" type="qcurve"/>
      <point x="572" y="-284"/>
      <point x="535" y="-285" type="qcurve"/>
      <point x="500" y="-284"/>
      <point x="472" y="-308" type="qcurve"/>
      <point x="441" y="-275" type="line"/>
      <point x="504" y="-125" type="line"/>
      <point x="603" y="-125" type="line"/>
      <point x="558" y="-236" type="line"/>
      <point x="566" y="-232"/>
    </contour>
  </outline>
</glyph>
<glyph name="igrave" format="2">
  <advance width="434"/>
  <unicode hex="00EC"/>
  <outline>
    <contour>
      <point x="144" y="996" type="line"/>
      <point x="289" y="996" type="line"/>
      <point x="289" y="0" type="line"/>
      <point x="144" y="0" type="line"/>
    </contour>
    <contour>
      <point x="24" y="1340" type="line"/>
      <point x="178" y="1375" type="line"/>
      <point x="409" y="1098" type="line"/>
      <point x="299" y="1098" type="line"/>
    </contour>
  </outline>
</glyph>
<glyph name="icircumflex" format="2">
  <advance width="434"/>
  <unicode hex="00EE"/>
  <outline>
    <contour>
      <point x="144" y="996" type="line"/>
      <point x="289" y="996" type="line"/>
      <point x="289" y="0" type="line"/>
      <point x="144" y="0" type="line"/>
    </contour>
    <contour>
      <point x="147" y="1363" type="line"/>
      <point x="282" y="1363" type="line"/>
      <point x="479" y="1098" type="line"/>
      <point x="366" y="1098" type="line"/>
      <point x="214" y="1262" type="line"/>
      <point x="65" y="1098" type="line"/>
      <point x="-46" y="1098" type="line"/>
    </contour>
  </outline>
</glyph>
<glyph name="odieresis" format="2">
  <advance width="1217"/>
  <unicode hex="00F6"/>
  <outline>
    <contour>
      <point x="609" y="-23" type="qcurve"/>
      <point x="473" y="-20"/>
      <point x="353" y="49" type="qcurve"/>
      <point x="236" y="120"/>
      <point x="164" y="240" type="qcurve"/>
      <point x="94" y="362"/>
      <point x="94" y="498" type="qcurve"/>
      <point x="94" y="640"/>
      <point x="162" y="758" type="qcurve"/>
      <point x="234" y="882"/>
      <point x="353" y="949" type="qcurve"/>
      <point x="473" y="1021"/>
      <point x="609" y="1021" type="qcurve"/>
      <point x="748" y="1021"/>
      <point x="865" y="949" type="qcurve"/>
      <point x="986" y="882"/>
      <point x="1054" y="758" type="qcurve"/>
      <point x="1126" y="640"/>
      <point x="1123" y="498" type="qcurve"/>
      <point x="1123" y="427"/>
      <point x="1108" y="365" type="qcurve"/>
      <point x="1094" y="304"/>
      <point x="1056" y="242" type="qcurve"/>
      <point x="988" y="122"/>
      <point x="867" y="49" type="qcurve"/>
      <point x="750" y="-20"/>
    </contour>
    <contour>
      <point x="609" y="105" type="qcurve"/>
      <point x="705" y="108"/>
      <point x="789" y="160" type="qcurve"/>
      <point x="874" y="214"/>
      <point x="920" y="301" type="qcurve"/>
      <point x="972" y="394"/>
      <point x="972" y="498" type="qcurve"/>
      <point x="974" y="603"/>
      <point x="922" y="693" type="qcurve"/>
      <point x="876" y="784"/>
      <point x="791" y="836" type="qcurve"/>
      <point x="705" y="890"/>
      <point x="609" y="890" type="qcurve"/>
      <point x="512" y="892"/>
      <point x="428" y="838" type="qcurve"/>
      <point x="344" y="786"/>
      <point x="293" y="693" type="qcurve"/>
      <point x="246" y="603"/>
      <point x="246" y="498" type="qcurve"/>
      <point x="244" y="394"/>
      <point x="291" y="303" type="qcurve"/>
      <point x="342" y="214"/>
      <point x="426" y="160" type="qcurve"/>
      <point x="513" y="108"/>
    </contour>
    <contour>
      <point x="424" y="1302" type="qcurve"/>
      <point x="462" y="1302"/>
      <point x="488" y="1275" type="qcurve"/>
      <point x="515" y="1248"/>
      <point x="515" y="1212" type="qcurve"/>
      <point x="515" y="1176"/>
      <point x="488" y="1149" type="qcurve"/>
      <point x="462" y="1123"/>
      <point x="424" y="1123" type="qcurve"/>
      <point x="388" y="1123"/>
      <point x="362" y="1149" type="qcurve"/>
      <point x="336" y="1176"/>
      <point x="336" y="1212" type="qcurve"/>
      <point x="336" y="1248"/>
      <point x="361" y="1275" type="qcurve"/>
      <point x="388" y="1302"/>
    </contour>
    <contour>
      <point x="795" y="1302" type="qcurve"/>
      <point x="832" y="1302"/>
      <point x="859" y="1275" type="qcurve"/>
      <point x="886" y="1248"/>
      <point x="886" y="1214" type="qcurve"/>
      <point x="886" y="1178"/>
      <point x="859" y="1150" type="qcurve"/>
      <point x="832" y="1123"/>
      <point x="795" y="1123" type="qcurve"/>
      <point x="760" y="1123"/>
      <point x="734" y="1150" type="qcurve"/>
      <point x="710" y="1178"/>
      <point x="709" y="1214" type="qcurve"/>
      <point x="709" y="1248"/>
      <point x="733" y="1275" type="qcurve"/>
      <point x="759" y="1302"/>
    </contour>
  </outline>
</glyph>
<glyph name="udieresis" format="2">
  <advance width="1141"/>
  <unicode hex="00FC"/>
  <outline>
    <contour>
      <point x="386" y="1277" type="qcurve"/>
      <point x="423" y="1278"/>
      <point x="450" y="1251" type="qcurve"/>
      <point x="477" y="1224"/>
      <point x="477" y="1187" type="qcurve"/>
      <point x="477" y="1152"/>
      <point x="450" y="1125" type="qcurve"/>
      <point x="423" y="1099"/>
      <point x="386" y="1099" type="qcurve"/>
      <point x="351" y="1098"/>
      <point x="324" y="1124" type="qcurve"/>
      <point x="298" y="1151"/>
      <point x="298" y="1187" type="qcurve"/>
      <point x="298" y="1224"/>
      <point x="324" y="1250" type="qcurve"/>
      <point x="351" y="1277"/>
    </contour>
    <contour>
      <point x="757" y="1277" type="qcurve"/>
      <point x="795" y="1278"/>
      <point x="821" y="1251" type="qcurve"/>
      <point x="848" y="1224"/>
      <point x="848" y="1189" type="qcurve"/>
      <point x="848" y="1153"/>
      <point x="821" y="1126" type="qcurve"/>
      <point x="795" y="1099"/>
      <point x="757" y="1099" type="qcurve"/>
      <point x="721" y="1098"/>
      <point x="696" y="1125" type="qcurve"/>
      <point x="671" y="1152"/>
      <point x="671" y="1189" type="qcurve"/>
      <point x="671" y="1224"/>
      <point x="696" y="1250" type="qcurve"/>
      <point x="721" y="1277"/>
    </contour>
    <contour>
      <point x="520" y="-25" type="qcurve"/>
      <point x="411" y="-26"/>
      <point x="327" y="25" type="qcurve"/>
      <point x="239" y="73"/>
      <point x="194" y="160" type="qcurve"/>
      <point x="145" y="247"/>
      <point x="147" y="361" type="qcurve"/>
      <point x="147" y="996" type="line"/>
      <point x="290" y="996" type="line"/>
      <point x="290" y="381" type="line"/>
      <point x="291" y="258"/>
      <point x="360" y="182" type="qcurve"/>
      <point x="427" y="106"/>
      <point x="538" y="107" type="qcurve"/>
      <point x="620" y="107"/>
      <point x="692" y="139" type="qcurve"/>
      <point x="765" y="172"/>
      <point x="807" y="236" type="qcurve"/>
      <point x="849" y="292"/>
      <point x="848" y="361" type="qcurve"/>
      <point x="848" y="996" type="line"/>
      <point x="993" y="996" type="line"/>
      <point x="993" y="0" type="line"/>
      <point x="848" y="0" type="line"/>
      <point x="848" y="160" type="line"/>
      <point x="806" y="80"/>
      <point x="714" y="29" type="qcurve"/>
      <point x="625" y="-25"/>
    </contour>
  </outline>
</glyph>
<glyph name="Abreve" format="2">
  <advance width="1352"/>
  <unicode hex="0102"/>
  <outline>
    <contour>
      <point x="596" y="1456" type="line"/>
      <point x="760" y="1456" type="line"/>
      <point x="1288" y="0" type="line"/>
      <point x="1127" y="0" type="line"/>
      <point x="977" y="418" type="line"/>
      <point x="378" y="418" type="line"/>
      <point x="225" y="0" type="line"/>
      <point x="63" y="0" type="line"/>
    </contour>
    <contour>
      <point x="678" y="1234" type="line"/>
      <point x="429" y="558" type="line"/>
      <point x="926" y="558" type="line"/>
    </contour>
    <contour>
      <point x="675" y="1558" type="qcurve"/>
      <point x="601" y="1558"/>
      <point x="526" y="1587" type="qcurve"/>
      <point x="453" y="1618"/>
      <point x="393" y="1675" type="qcurve"/>
      <point x="485" y="1765" type="line"/>
      <point x="523" y="1728"/>
      <point x="571" y="1704" type="qcurve"/>
      <point x="625" y="1683"/>
      <point x="675" y="1683" type="qcurve"/>
      <point x="726" y="1683"/>
      <point x="774" y="1704" type="qcurve"/>
      <point x="830" y="1728"/>
      <point x="866" y="1765" type="qcurve"/>
      <point x="954" y="1675" type="line"/>
      <point x="903" y="1621"/>
      <point x="827" y="1589" type="qcurve"/>
      <point x="755" y="1558"/>
    </contour>
  </outline>
</glyph>
<glyph name="aogonek" format="2">
  <advance width="1229"/>
  <unicode hex="0105"/>
  <outline>
    <contour>
      <point x="590" y="105" type="qcurve"/>
      <point x="688" y="108"/>
      <point x="763" y="156" type="qcurve"/>
      <point x="840" y="206"/>
      <point x="882" y="293" type="qcurve"/>
      <point x="926" y="386"/>
      <point x="925" y="498" type="qcurve"/>
      <point x="926" y="615"/>
      <point x="882" y="701" type="qcurve"/>
      <point x="840" y="792"/>
      <point x="763" y="840" type="qcurve"/>
      <point x="688" y="892"/>
      <point x="590" y="890" type="qcurve"/>
      <point x="496" y="892"/>
      <point x="418" y="840" type="qcurve"/>
      <point x="340" y="792"/>
      <point x="297" y="701" type="qcurve"/>
      <point x="256" y="615"/>
      <point x="256" y="498" type="qcurve"/>
      <point x="256" y="386"/>
      <point x="297" y="295" type="qcurve"/>
      <point x="341" y="208"/>
      <point x="416" y="156" type="qcurve"/>
      <point x="497" y="108"/>
    </contour>
    <contour>
      <point x="1070" y="996" type="line"/>
      <point x="1070" y="0" type="line"/>
      <point x="925" y="0" type="line"/>
      <point x="925" y="187" type="line"/>
      <point x="869" y="91"/>
      <point x="776" y="34" type="qcurve"/>
      <point x="684" y="-23"/>
      <point x="564" y="-23" type="qcurve"/>
      <point x="435" y="-25"/>
      <point x="330" y="43" type="qcurve"/>
      <point x="226" y="112"/>
      <point x="164" y="230" type="qcurve"/>
      <point x="106" y="354"/>
      <point x="102" y="498" type="qcurve"/>
      <point x="106" y="648"/>
      <point x="164" y="767" type="qcurve"/>
      <point x="226" y="889"/>
      <point x="328" y="953" type="qcurve"/>
      <point x="436" y="1022"/>
      <point x="564" y="1021" type="qcurve"/>
      <point x="681" y="1022"/>
      <point x="774" y="966" type="qcurve"/>
      <point x="868" y="910"/>
      <point x="925" y="810" type="qcurve"/>
      <point x="925" y="996" type="line"/>
    </contour>
    <contour>
      <point x="613" y="-496" type="qcurve"/>
      <point x="520" y="-498"/>
      <point x="459" y="-445" type="qcurve"/>
      <point x="402" y="-384"/>
      <point x="402" y="-291" type="qcurve"/>
      <point x="400" y="-236"/>
      <point x="430" y="-191" type="qcurve"/>
      <point x="462" y="-146"/>
      <point x="504" y="-127" type="qcurve"/>
      <point x="621" y="-164" type="line"/>
      <point x="576" y="-164"/>
      <point x="543" y="-195" type="qcurve"/>
      <point x="510" y="-225"/>
      <point x="510" y="-273" type="qcurve"/>
      <point x="510" y="-324"/>
      <point x="539" y="-355" type="qcurve"/>
      <point x="569" y="-385"/>
      <point x="621" y="-383" type="qcurve"/>
      <point x="681" y="-380"/>
      <point x="713" y="-346" type="qcurve"/>
      <point x="773" y="-443" type="line"/>
      <point x="707" y="-496"/>
    </contour>
  </outline>
</glyph>
<glyph name="ccaron" format="2">
  <advance width="1044"/>
  <unicode hex="010D"/>
  <outline>
    <contour>
      <point x="609" y="-23" type="qcurve"/>
      <point x="473" y="-20"/>
      <point x="353" y="49" type="qcurve"/>
      <point x="236" y="120"/>
      <point x="164" y="240" type="qcurve"/>
      <point x="94" y="362"/>
      <point x="94" y="498" type="qcurve"/>
      <point x="94" y="640"/>
      <point x="162" y="758" type="qcurve"/>
      <point x="234" y="882"/>
      <point x="353" y="949" type="qcurve"/>
      <point x="473" y="1021"/>
      <point x="609" y="1021" type="qcurve"/>
      <point x="710" y="1021"/>
      <point x="800" y="982" type="qcurve"/>
      <point x="894" y="943"/>
      <point x="964" y="873" type="qcurve"/>
      <point x="865" y="775" type="line"/>
      <point x="817" y="831"/>
      <point x="748" y="861" type="qcurve"/>
      <point x="685" y="890"/>
      <point x="609" y="890" type="qcurve"/>
      <point x="512" y="892"/>
      <point x="428" y="838" type="qcurve"/>
      <point x="344" y="786"/>
      <point x="293" y="693" type="qcurve"/>
      <point x="246" y="603"/>
      <point x="246" y="498" type="qcurve"/>
      <point x="244" y="394"/>
      <point x="291" y="303" type="qcurve"/>
      <point x="342" y="214"/>
      <point x="426" y="160" type="qcurve"/>
      <point x="513" y="108"/>
      <point x="609" y="105" type="qcurve"/>
      <point x="686" y="105"/>
      <point x="750" y="135" type="qcurve"/>
      <point x="818" y="168"/>
      <point x="869" y="228" type="qcurve"/>
      <point x="970" y="129" type="line"/>
      <point x="900" y="60"/>
      <point x="806" y="18" type="qcurve"/>
      <point x="714" y="-22"/>
    </contour>
    <contour>
      <point x="271" y="1388" type="line"/>
      <point x="381" y="1388" type="line"/>
      <point x="531" y="1222" type="line"/>
      <point x="683" y="1388" type="line"/>
      <point x="795" y="1388" type="line"/>
      <point x="599" y="1123" type="line"/>
      <point x="463" y="1123" type="line"/>
    </contour>
  </outline>
</glyph>
<glyph name="dcaron" format="2">
  <advance width="1229"/>
  <unicode hex="010F"/>
  <outline>
    <contour>
      <point x="590" y="105" type="qcurve"/>
      <point x="688" y="108"/>
      <point x="763" y="156" type="qcurve"/>
      <point x="840" y="206"/>
      <point x="882" y="293" type="qcurve"/>
      <point x="926" y="386"/>
      <point x="925" y="498" type="qcurve"/>
      <point x="926" y="615"/>
      <point x="882" y="701" type="qcurve"/>
      <point x="840" y="792"/>
      <point x="763" y="840" type="qcurve"/>
      <point x="688" y="892"/>
      <point x="590" y="890" type="qcurve"/>
      <point x="496" y="892"/>
      <point x="418" y="840" type="qcurve"/>
      <point x="340" y="792"/>
      <point x="297" y="701" type="qcurve"/>
      <point x="256" y="615"/>
      <point x="256" y="498" type="qcurve"/>
      <point x="256" y="386"/>
      <point x="297" y="295" type="qcurve"/>
      <point x="341" y="208"/>
      <point x="416" y="156" type="qcurve"/>
      <point x="497" y="108"/>
    </contour>
    <contour>
      <point x="1070" y="996" type="line"/>
      <point x="1070" y="0" type="line"/>
      <point x="925" y="0" type="line"/>
      <point x="925" y="187" type="line"/>
      <point x="869" y="91"/>
      <point x="776" y="34" type="qcurve"/>
      <point x="684" y="-23"/>
      <point x="564" y="-23" type="qcurve"/>
      <point x="435" y="-25"/>
      <point x="330" y="43" type="qcurve"/>
      <point x="226" y="112"/>
      <point x="164" y="230" type="qcurve"/>
      <point x="106" y="354"/>
      <point x="102" y="498" type="qcurve"/>
      <point x="106" y="648"/>
      <point x="164" y="767" type="qcurve"/>
      <point x="226" y="889"/>
      <point x="328" y="953" type="qcurve"/>
      <point x="436" y="1022"/>
      <point x="564" y="1021" type="qcurve"/>
      <point x="681" y="1022"/>
      <point x="774" y="966" type="qcurve"/>
      <point x="868" y="910"/>
      <point x="925" y="810" type="qcurve"/>
      <point x="925" y="996" type="line"/>
    </contour>
    <contour>
      <point x="1070" y="1456" type="line"/>
      <point x="1070" y="996" type="line"/>
      <point x="925" y="996" type="line"/>
      <point x="925" y="1456" type="line"/>
    </contour>
    <contour>
      <point x="324" y="1822" type="line"/>
      <point x="435" y="1822" type="line"/>
      <point x="584" y="1656" type="line"/>
      <point x="736" y="1822" type="line"/>
      <point x="849" y="1822" type="line"/>
      <point x="652" y="1558" type="line"/>
      <point x="517" y="1558" type="line"/>
    </contour>
  </outline>
</glyph>
<glyph name="eogonek" format="2">
  <advance width="1147"/>
  <unicode hex="0119"/>
  <outline>
    <contour>
      <point x="597" y="105" type="qcurve"/>
      <point x="686" y="108"/>
      <point x="773" y="139" type="qcurve"/>
      <point x="866" y="175"/>
      <point x="910" y="226" type="qcurve"/>
      <point x="998" y="131" type="line"/>
      <point x="936" y="62"/>
      <point x="822" y="20" type="qcurve"/>
      <point x="708" y="-20"/>
      <point x="599" y="-23" type="qcurve"/>
      <point x="464" y="-23"/>
      <point x="348" y="45" type="qcurve"/>
      <point x="234" y="112"/>
      <point x="164" y="232" type="qcurve"/>
      <point x="94" y="354"/>
      <point x="94" y="500" type="qcurve"/>
      <point x="92" y="648"/>
      <point x="158" y="765" type="qcurve"/>
      <point x="226" y="887"/>
      <point x="336" y="953" type="qcurve"/>
      <point x="452" y="1022"/>
      <point x="584" y="1021" type="qcurve"/>
      <point x="808" y="1021"/>
      <point x="931" y="865" type="qcurve"/>
      <point x="1058" y="709"/>
      <point x="1058" y="445" type="qcurve"/>
      <point x="242" y="445" type="line"/>
      <point x="258" y="295"/>
      <point x="353" y="201" type="qcurve"/>
      <point x="452" y="108"/>
    </contour>
    <contour>
      <point x="590" y="890" type="qcurve"/>
      <point x="455" y="892"/>
      <point x="359" y="804" type="qcurve"/>
      <point x="265" y="718"/>
      <point x="244" y="572" type="qcurve"/>
      <point x="914" y="572" type="line"/>
      <point x="900" y="718"/>
      <point x="816" y="802" type="qcurve"/>
      <point x="736" y="890"/>
    </contour>
    <contour>
      <point x="603" y="-494" type="qcurve"/>
      <point x="509" y="-496"/>
      <point x="449" y="-443" type="qcurve"/>
      <point x="392" y="-382"/>
      <point x="392" y="-289" type="qcurve"/>
      <point x="390" y="-234"/>
      <point x="420" y="-189" type="qcurve"/>
      <point x="452" y="-144"/>
      <point x="494" y="-125" type="qcurve"/>
      <point x="611" y="-162" type="line"/>
      <point x="566" y="-162"/>
      <point x="533" y="-193" type="qcurve"/>
      <point x="500" y="-223"/>
      <point x="500" y="-271" type="qcurve"/>
      <point x="500" y="-322"/>
      <point x="529" y="-353" type="qcurve"/>
      <point x="559" y="-383"/>
      <point x="611" y="-381" type="qcurve"/>
      <point x="670" y="-378"/>
      <point x="703" y="-344" type="qcurve"/>
      <point x="763" y="-441" type="line"/>
      <point x="697" y="-494"/>
    </contour>
  </outline>
</glyph>
<glyph name="gbreve" format="2">
  <advance width="1229"/>
  <unicode hex="011F"/>
  <outline>
    <contour>
      <point x="937" y="0" type="qcurve"/>
      <point x="1082" y="0" type="line"/>
      <point x="1082" y="-102"/>
      <point x="1021" y="-191" type="qcurve"/>
      <point x="960" y="-289"/>
      <point x="849" y="-346" type="qcurve"/>
      <point x="738" y="-402"/>
      <point x="592" y="-404" type="qcurve"/>
      <point x="476" y="-401"/>
      <point x="367" y="-367" type="qcurve"/>
      <point x="260" y="-328"/>
      <point x="191" y="-271" type="qcurve"/>
      <point x="254" y="-156" type="line"/>
      <point x="312" y="-212"/>
      <point x="396" y="-244" type="qcurve"/>
      <point x="482" y="-274"/>
      <point x="574" y="-275" type="qcurve"/>
      <point x="746" y="-274"/>
      <point x="843" y="-193" type="qcurve"/>
      <point x="937" y="-86"/>
    </contour>
    <contour>
      <point x="603" y="105" type="qcurve"/>
      <point x="700" y="108"/>
      <point x="775" y="156" type="qcurve"/>
      <point x="854" y="206"/>
      <point x="894" y="293" type="qcurve"/>
      <point x="938" y="386"/>
      <point x="937" y="498" type="qcurve"/>
      <point x="938" y="615"/>
      <point x="894" y="701" type="qcurve"/>
      <point x="854" y="792"/>
      <point x="775" y="840" type="qcurve"/>
      <point x="700" y="892"/>
      <point x="603" y="890" type="qcurve"/>
      <point x="508" y="892"/>
      <point x="430" y="840" type="qcurve"/>
      <point x="354" y="792"/>
      <point x="310" y="701" type="qcurve"/>
      <point x="270" y="615"/>
      <point x="269" y="498" type="qcurve"/>
      <point x="270" y="386"/>
      <point x="310" y="295" type="qcurve"/>
      <point x="354" y="208"/>
      <point x="428" y="156" type="qcurve"/>
      <point x="509" y="108"/>
    </contour>
    <contour>
      <point x="1082" y="996" type="line"/>
      <point x="1082" y="0" type="line"/>
      <point x="937" y="0" type="line"/>
      <point x="937" y="187" type="line"/>
      <point x="883" y="91"/>
      <point x="789" y="34" type="qcurve"/>
      <point x="696" y="-23"/>
      <point x="576" y="-23" type="qcurve"/>
      <point x="447" y="-25"/>
      <point x="342" y="43" type="qcurve"/>
      <point x="238" y="112"/>
      <point x="176" y="230" type="qcurve"/>
      <point x="118" y="354"/>
      <point x="115" y="498" type="qcurve"/>
      <point x="118" y="648"/>
      <point x="176" y="767" type="qcurve"/>
      <point x="238" y="889"/>
      <point x="340" y="953" type="qcurve"/>
      <point x="448" y="1022"/>
      <point x="576" y="1021" type="qcurve"/>
      <point x="693" y="1022"/>
      <point x="786" y="966" type="qcurve"/>
      <point x="880" y="910"/>
      <point x="937" y="810" type="qcurve"/>
      <point x="937" y="996" type="line"/>
    </contour>
    <contour>
      <point x="601" y="1123" type="qcurve"/>
      <point x="526" y="1124"/>
      <point x="451" y="1152" type="qcurve"/>
      <point x="378" y="1184"/>
      <point x="318" y="1240" type="qcurve"/>
      <point x="410" y="1330" type="line"/>
      <point x="448" y="1294"/>
      <point x="496" y="1269" type="qcurve"/>
      <point x="550" y="1248"/>
      <point x="601" y="1248" type="qcurve"/>
      <point x="651" y="1248"/>
      <point x="699" y="1269" type="qcurve"/>
      <point x="755" y="1294"/>
      <point x="791" y="1330" type="qcurve"/>
      <point x="879" y="1240" type="line"/>
      <point x="828" y="1186"/>
      <point x="752" y="1154" type="qcurve"/>
      <point x="682" y="1124"/>
    </contour>
  </outline>
</glyph>
<glyph name="gcedilla" format="2">
  <advance width="1229"/>
  <unicode hex="0123"/>
  <outline>
    <contour>
      <point x="937" y="0" type="qcurve"/>
      <point x="1082" y="0" type="line"/>
      <point x="1082" y="-102"/>
      <point x="1021" y="-191" type="qcurve"/>
      <point x="960" y="-289"/>
      <point x="849" y="-346" type="qcurve"/>
      <point x="738" y="-402"/>
      <point x="592" y="-404" type="qcurve"/>
      <point x="476" y="-401"/>
      <point x="367" y="-367" type="qcurve"/>
      <point x="260" y="-328"/>
      <point x="191" y="-271" type="qcurve"/>
      <point x="254" y="-156" type="line"/>
      <point x="312" y="-212"/>
      <point x="396" y="-244" type="qcurve"/>
      <point x="482" y="-274"/>
      <point x="574" y="-275" type="qcurve"/>
      <point x="746" y="-274"/>
      <point x="843" y="-193" type="qcurve"/>
      <point x="937" y="-86"/>
    </contour>
    <contour>
      <point x="603" y="105" type="qcurve"/>
      <point x="700" y="108"/>
      <point x="775" y="156" type="qcurve"/>
      <point x="854" y="206"/>
      <point x="894" y="293" type="qcurve"/>
      <point x="938" y="386"/>
      <point x="937" y="498" type="qcurve"/>
      <point x="938" y="615"/>
      <point x="894" y="701" type="qcurve"/>
      <point x="854" y="792"/>
      <point x="775" y="840" type="qcurve"/>
      <point x="700" y="892"/>
      <point x="603" y="890" type="qcurve"/>
      <point x="508" y="892"/>
      <point x="430" y="840" type="qcurve"/>
      <point x="354" y="792"/>
      <point x="310" y="701" type="qcurve"/>
      <point x="270" y="615"/>
      <point x="269" y="498" type="qcurve"/>
      <point x="270" y="386"/>
      <point x="310" y="295" type="qcurve"/>
      <point x="354" y="208"/>
      <point x="428" y="156" type="qcurve"/>
      <point x="509" y="108"/>
    </contour>
    <contour>
      <point x="1082" y="996" type="line"/>
      <point x="1082" y="0" type="line"/>
      <point x="937" y="0" type="line"/>
      <point x="937" y="187" type="line"/>
      <point x="883" y="91"/>
      <point x="789" y="34" type="qcurve"/>
      <point x="696" y="-23"/>
      <point x="576" y="-23" type="qcurve"/>
      <point x="447" y="-25"/>
      <point x="342" y="43" type="qcurve"/>
      <point x="238" y="112"/>
      <point x="176" y="230" type="qcurve"/>
      <point x="118" y="354"/>
      <point x="115" y="498" type="qcurve"/>
      <point x="118" y="648"/>
      <point x="176" y="767" type="qcurve"/>
      <point x="238" y="889"/>
      <point x="340" y="953" type="qcurve"/>
      <point x="448" y="1022"/>
      <point x="576" y="1021" type="qcurve"/>
      <point x="693" y="1022"/>
      <point x="786" y="966" type="qcurve"/>
      <point x="880" y="910"/>
      <point x="937" y="810" type="qcurve"/>
      <point x="937" y="996" type="line"/>
    </contour>
    <contour>
      <point x="644" y="-615" type="qcurve"/>
      <point x="704" y="-612"/>
      <point x="740" y="-648" type="qcurve"/>
      <point x="782" y="-682"/>
      <point x="779" y="-740" type="qcurve"/>
      <point x="780" y="-809"/>
      <point x="724" y="-853" type="qcurve"/>
      <point x="670" y="-896"/>
      <point x="588" y="-896" type="qcurve"/>
      <point x="544" y="-896"/>
      <point x="496" y="-882" type="qcurve"/>
      <point x="450" y="-864"/>
      <point x="418" y="-843" type="qcurve"/>
      <point x="455" y="-763" type="line"/>
      <point x="512" y="-805"/>
      <point x="582" y="-808" type="qcurve"/>
      <point x="624" y="-808"/>
      <point x="650" y="-787" type="qcurve"/>
      <point x="680" y="-764"/>
      <point x="676" y="-734" type="qcurve"/>
      <point x="679" y="-702"/>
      <point x="658" y="-687" type="qcurve"/>
      <point x="638" y="-666"/>
      <point x="601" y="-666" type="qcurve"/>
      <point x="567" y="-666"/>
      <point x="537" y="-689" type="qcurve"/>
      <point x="506" y="-656" type="line"/>
      <point x="570" y="-506" type="line"/>
      <point x="668" y="-506" type="line"/>
      <point x="623" y="-617" type="line"/>
      <point x="632" y="-612"/>
    </contour>
  </outline>
</glyph>
<glyph name="Itilde" format="2">
  <advance width="455"/>
  <unicode hex="0128"/>
  <outline>
    <contour>
      <point x="152" y="1456" type="line"/>
      <point x="301" y="1456" type="line"/>
      <point x="301" y="0" type="line"/>
      <point x="152" y="0" type="line"/>
    </contour>
    <contour>
      <point x="351" y="1562" type="qcurve"/>
      <point x="311" y="1560"/>
      <point x="279" y="1578" type="qcurve"/>
      <point x="251" y="1600"/>
      <point x="201" y="1634" type="qcurve"/>
      <point x="172" y="1666"/>
      <point x="148" y="1677" type="qcurve"/>
      <point x="127" y="1692"/>
      <point x="100" y="1689" type="qcurve"/>
      <point x="67" y="1690"/>
      <point x="41" y="1658" type="qcurve"/>
      <point x="16" y="1628"/>
      <point x="4" y="1558" type="qcurve"/>
      <point x="-84" y="1570" type="line"/>
      <point x="-52" y="1800"/>
      <point x="100" y="1800" type="qcurve"/>
      <point x="140" y="1802"/>
      <point x="170" y="1784" type="qcurve"/>
      <point x="204" y="1766"/>
      <point x="250" y="1728" type="qcurve"/>
      <point x="283" y="1700"/>
      <point x="303" y="1687" type="qcurve"/>
      <point x="329" y="1675"/>
      <point x="351" y="1675" type="qcurve"/>
      <point x="390" y="1676"/>
      <point x="412" y="1706" type="qcurve"/>
      <point x="436" y="1736"/>
      <point x="447" y="1804" type="qcurve"/>
      <point x="535" y="1792" type="line"/>
      <point x="504" y="1564"/>
    </contour>
  </outline>
</glyph>
<glyph name="Imacron" format="2">
  <advance width="455"/>
  <unicode hex="012A"/>
  <outline>
    <contour>
      <point x="152" y="1456" type="line"/>
      <point x="301" y="1456" type="line"/>
      <point x="301" y="0" type="line"/>
      <point x="152" y="0" type="line"/>
    </contour>
    <contour>
      <point x="74" y="1883" type="line"/>
      <point x="599" y="1883" type="line"/>
      <point x="599" y="1773" type="line"/>
      <point x="74" y="1773" type="line"/>
    </contour>
    <contour>
      <point x="-146" y="1558" type="line"/>
      <point x="-146" y="1558" type="line"/>
      <point x="-146" y="1558" type="line"/>
      <point x="-146" y="1558" type="line"/>
    </contour>
    <contour>
      <point x="-146" y="1558" type="line"/>
      <point x="-146" y="1558" type="line"/>
      <point x="-146" y="1558" type="line"/>
      <point x="-146" y="1558" type="line"/>
    </contour>
  </outline>
</glyph>
<glyph name="imacron" format="2">
  <advance width="434"/>
  <unicode hex="012B"/>
  <outline>
    <contour>
      <point x="144" y="996" type="line"/>
      <point x="289" y="996" type="line"/>
      <point x="289" y="0" type="line"/>
      <point x="144" y="0" type="line"/>
    </contour>
    <contour>
      <point x="64" y="1423" type="line"/>
      <point x="589" y="1423" type="line"/>
      <point x="589" y="1313" type="line"/>
      <point x="64" y="1313" type="line"/>
    </contour>
    <contour>
      <point x="-156" y="1098" type="line"/>
      <point x="-156" y="1098" type="line"/>
      <point x="-156" y="1098" type="line"/>
      <point x="-156" y="1098" type="line"/>
    </contour>
    <contour>
      <point x="-156" y="1098" type="line"/>
      <point x="-156" y="1098" type="line"/>
      <point x="-156" y="1098" type="line"/>
      <point x="-156" y="1098" type="line"/>
    </contour>
  </outline>
</glyph>
<glyph name="ibreve" format="2">
  <advance width="434"/>
  <unicode hex="012D"/>
  <outline>
    <contour>
      <point x="144" y="996" type="line"/>
      <point x="289" y="996" type="line"/>
      <point x="289" y="0" type="line"/>
      <point x="144" y="0" type="line"/>
    </contour>
    <contour>
      <point x="218" y="1098" type="qcurve"/>
      <point x="143" y="1098"/>
      <point x="68" y="1126" type="qcurve"/>
      <point x="-6" y="1158"/>
      <point x="-65" y="1215" type="qcurve"/>
      <point x="27" y="1305" type="line"/>
      <point x="66" y="1270"/>
      <point x="113" y="1243" type="qcurve"/>
      <point x="167" y="1223"/>
      <point x="218" y="1223" type="qcurve"/>
      <point x="268" y="1223"/>
      <point x="316" y="1243" type="qcurve"/>
      <point x="372" y="1270"/>
      <point x="408" y="1305" type="qcurve"/>
      <point x="497" y="1215" type="line"/>
      <point x="446" y="1161"/>
      <point x="370" y="1128" type="qcurve"/>
      <point x="298" y="1098"/>
    </contour>
  </outline>
</glyph>
<glyph name="Iogonek" format="2">
  <advance width="455"/>
  <unicode hex="012E"/>
  <outline>
    <contour>
      <point x="152" y="1456" type="line"/>
      <point x="301" y="1456" type="line"/>
      <point x="301" y="0" type="line"/>
      <point x="152" y="0" type="line"/>
    </contour>
    <contour>
      <point x="252" y="-472" type="qcurve"/>
      <point x="158" y="-474"/>
      <point x="98" y="-420" type="qcurve"/>
      <point x="41" y="-360"/>
      <point x="41" y="-266" type="qcurve"/>
      <point x="40" y="-210"/>
      <point x="70" y="-166" type="qcurve"/>
      <point x="100" y="-120"/>
      <point x="144" y="-102" type="qcurve"/>
      <point x="260" y="-139" type="line"/>
      <point x="215" y="-138"/>
      <point x="182" y="-170" type="qcurve"/>
      <point x="150" y="-200"/>
      <point x="150" y="-248" type="qcurve"/>
      <point x="150" y="-298"/>
      <point x="178" y="-330" type="qcurve"/>
      <point x="208" y="-360"/>
      <point x="260" y="-359" type="qcurve"/>
      <point x="320" y="-356"/>
      <point x="353" y="-322" type="qcurve"/>
      <point x="412" y="-418" type="line"/>
      <point x="346" y="-472"/>
    </contour>
  </outline>
</glyph>
<glyph name="dotlessi" format="2">
  <advance width="434"/>
  <unicode hex="0131"/>
  <outline>
    <contour>
      <point x="144" y="996" type="line"/>
      <point x="289" y="996" type="line"/>
      <point x="289" y="0" type="line"/>
      <point x="144" y="0" type="line"/>
    </contour>
  </outline>
</glyph>
<glyph name="Jcircumflex" format="2">
  <advance width="1040"/>
  <unicode hex="0134"/>
  <outline>
    <contour>
      <point x="457" y="-23" type="qcurve"/>
      <point x="340" y="-23"/>
      <point x="226" y="39" type="qcurve"/>
      <point x="112" y="102"/>
      <point x="51" y="197" type="qcurve"/>
      <point x="160" y="303" type="line"/>
      <point x="199" y="222"/>
      <point x="283" y="168" type="qcurve"/>
      <point x="370" y="116"/>
      <point x="457" y="113" type="qcurve"/>
      <point x="574" y="116"/>
      <point x="650" y="203" type="qcurve"/>
      <point x="726" y="292"/>
      <point x="724" y="433" type="qcurve"/>
      <point x="724" y="1456" type="line"/>
      <point x="875" y="1456" type="line"/>
      <point x="875" y="433" type="line"/>
      <point x="878" y="302"/>
      <point x="824" y="197" type="qcurve"/>
      <point x="772" y="92"/>
      <point x="674" y="35" type="qcurve"/>
      <point x="580" y="-22"/>
    </contour>
    <contour>
      <point x="396" y="1822" type="line"/>
      <point x="531" y="1822" type="line"/>
      <point x="728" y="1558" type="line"/>
      <point x="615" y="1558" type="line"/>
      <point x="463" y="1722" type="line"/>
      <point x="314" y="1558" type="line"/>
      <point x="203" y="1558" type="line"/>
    </contour>
  </outline>
</glyph>
<glyph name="kcedilla" format="2">
  <advance width="1026"/>
  <unicode hex="0137"/>
  <outline>
    <contour>
      <point x="141" y="1456" type="line"/>
      <point x="289" y="1456" type="line"/>
      <point x="289" y="531" type="line"/>
      <point x="752" y="996" type="line"/>
      <point x="955" y="996" type="line"/>
      <point x="472" y="512" type="line"/>
      <point x="986" y="0" type="line"/>
      <point x="783" y="0" type="line"/>
      <point x="289" y="492" type="line"/>
      <point x="289" y="0" type="line"/>
      <point x="141" y="0" type="line"/>
    </contour>
    <contour>
      <point x="609" y="-211" type="qcurve"/>
      <point x="669" y="-208"/>
      <point x="705" y="-244" type="qcurve"/>
      <point x="747" y="-278"/>
      <point x="744" y="-336" type="qcurve"/>
      <point x="744" y="-405"/>
      <point x="689" y="-449" type="qcurve"/>
      <point x="636" y="-492"/>
      <point x="554" y="-492" type="qcurve"/>
      <point x="509" y="-492"/>
      <point x="461" y="-478" type="qcurve"/>
      <point x="415" y="-460"/>
      <point x="383" y="-439" type="qcurve"/>
      <point x="420" y="-359" type="line"/>
      <point x="478" y="-401"/>
      <point x="547" y="-404" type="qcurve"/>
      <point x="588" y="-404"/>
      <point x="615" y="-383" type="qcurve"/>
      <point x="645" y="-360"/>
      <point x="642" y="-330" type="qcurve"/>
      <point x="644" y="-298"/>
      <point x="623" y="-283" type="qcurve"/>
      <point x="604" y="-262"/>
      <point x="566" y="-262" type="qcurve"/>
      <point x="532" y="-262"/>
      <point x="502" y="-285" type="qcurve"/>
      <point x="472" y="-252" type="line"/>
      <point x="535" y="-102" type="line"/>
      <point x="633" y="-102" type="line"/>
      <point x="588" y="-213" type="line"/>
      <point x="597" y="-208"/>
    </contour>
  </outline>
</glyph>
<glyph name="lcedilla" format="2">
  <advance width="438"/>
  <unicode hex="013C"/>
  <outline>
    <contour>
      <point x="146" y="1456" type="line"/>
      <point x="291" y="1456" type="line"/>
      <point x="291" y="0" type="line"/>
      <point x="146" y="0" type="line"/>
    </contour>
    <contour>
      <point x="264" y="-211" type="qcurve"/>
      <point x="324" y="-208"/>
      <point x="361" y="-244" type="qcurve"/>
      <point x="403" y="-278"/>
      <point x="400" y="-336" type="qcurve"/>
      <point x="400" y="-405"/>
      <point x="344" y="-449" type="qcurve"/>
      <point x="292" y="-492"/>
      <point x="209" y="-492" type="qcurve"/>
      <point x="164" y="-492"/>
      <point x="117" y="-478" type="qcurve"/>
      <point x="71" y="-460"/>
      <point x="39" y="-439" type="qcurve"/>
      <point x="76" y="-359" type="line"/>
      <point x="134" y="-401"/>
      <point x="203" y="-404" type="qcurve"/>
      <point x="244" y="-404"/>
      <point x="271" y="-383" type="qcurve"/>
      <point x="300" y="-360"/>
      <point x="297" y="-330" type="qcurve"/>
      <point x="300" y="-298"/>
      <point x="279" y="-283" type="qcurve"/>
      <point x="258" y="-262"/>
      <point x="221" y="-262" type="qcurve"/>
      <point x="188" y="-262"/>
      <point x="158" y="-285" type="qcurve"/>
      <point x="127" y="-252" type="line"/>
      <point x="191" y="-102" type="line"/>
      <point x="289" y="-102" type="line"/>
      <point x="244" y="-213" type="line"/>
      <point x="252" y="-208"/>
    </contour>
  </outline>
</glyph>
<glyph name="lcaron" format="2">
  <advance width="438"/>
  <unicode hex="013E"/>
  <outline>
    <contour>
      <point x="146" y="1456" type="line"/>
      <point x="291" y="1456" type="line"/>
      <point x="291" y="0" type="line"/>
      <point x="146" y="0" type="line"/>
    </contour>
    <contour>
      <point x="-43" y="1822" type="line"/>
      <point x="68" y="1822" type="line"/>
      <point x="217" y="1656" type="line"/>
      <point x="369" y="1822" type="line"/>
      <point x="482" y="1822" type="line"/>
      <point x="285" y="1558" type="line"/>
      <point x="150" y="1558" type="line"/>
    </contour>
  </outline>
</glyph>
<glyph name="lslash" format="2">
  <advance width="592"/>
  <unicode hex="0142"/>
  <outline>
    <contour>
      <point x="521" y="681" type="line"/>
      <point x="363" y="603" type="line"/>
      <point x="363" y="0" type="line"/>
      <point x="217" y="0" type="line"/>
      <point x="217" y="525" type="line"/>
      <point x="72" y="451" type="line"/>
      <point x="72" y="597" type="line"/>
      <point x="217" y="672" type="line"/>
      <point x="217" y="1456" type="line"/>
      <point x="363" y="1456" type="line"/>
      <point x="363" y="746" type="line"/>
      <point x="521" y="828" type="line"/>
    </contour>
  </outline>
</glyph>
<glyph name="rcedilla" format="2">
  <advance width="743"/>
  <unicode hex="0157"/>
  <outline>
    <contour>
      <point x="303" y="802" type="line"/>
      <point x="348" y="902"/>
      <point x="451" y="959" type="qcurve"/>
      <point x="554" y="1022"/>
      <point x="689" y="1021" type="qcurve"/>
      <point x="689" y="890" type="line"/>
      <point x="578" y="890"/>
      <point x="490" y="849" type="qcurve"/>
      <point x="406" y="808"/>
      <point x="355" y="730" type="qcurve"/>
      <point x="304" y="654"/>
      <point x="303" y="558" type="qcurve"/>
      <point x="303" y="0" type="line"/>
      <point x="160" y="0" type="line"/>
      <point x="160" y="996" type="line"/>
      <point x="303" y="996" type="line"/>
    </contour>
    <contour>
      <point x="469" y="-211" type="qcurve"/>
      <point x="530" y="-208"/>
      <point x="566" y="-244" type="qcurve"/>
      <point x="608" y="-278"/>
      <point x="605" y="-336" type="qcurve"/>
      <point x="606" y="-405"/>
      <point x="549" y="-449" type="qcurve"/>
      <point x="496" y="-492"/>
      <point x="414" y="-492" type="qcurve"/>
      <point x="370" y="-492"/>
      <point x="322" y="-478" type="qcurve"/>
      <point x="276" y="-460"/>
      <point x="244" y="-439" type="qcurve"/>
      <point x="281" y="-359" type="line"/>
      <point x="338" y="-401"/>
      <point x="408" y="-404" type="qcurve"/>
      <point x="450" y="-404"/>
      <point x="476" y="-383" type="qcurve"/>
      <point x="504" y="-360"/>
      <point x="502" y="-330" type="qcurve"/>
      <point x="505" y="-298"/>
      <point x="484" y="-283" type="qcurve"/>
      <point x="464" y="-262"/>
      <point x="426" y="-262" type="qcurve"/>
      <point x="393" y="-262"/>
      <point x="363" y="-285" type="qcurve"/>
      <point x="332" y="-252" type="line"/>
      <point x="396" y="-102" type="line"/>
      <point x="494" y="-102" type="line"/>
      <point x="449" y="-213" type="line"/>
      <point x="458" y="-208"/>
    </contour>
  </outline>
</glyph>
<glyph name="Rcaron" format="2">
  <advance width="1331"/>
  <unicode hex="0158"/>
  <outline>
    <contour>
      <point x="152" y="1456" type="line"/>
      <point x="689" y="1456" type="line"/>
      <point x="829" y="1456"/>
      <point x="937" y="1402" type="qcurve"/>
      <point x="1051" y="1350"/>
      <point x="1111" y="1253" type="qcurve"/>
      <point x="1180" y="1156"/>
      <point x="1179" y="1033" type="qcurve"/>
      <point x="1180" y="883"/>
      <point x="1076" y="767" type="qcurve"/>
      <point x="978" y="656"/>
      <point x="818" y="621" type="qcurve"/>
      <point x="1253" y="0" type="line"/>
      <point x="1078" y="0" type="line"/>
      <point x="654" y="607" type="line"/>
      <point x="301" y="607" type="line"/>
      <point x="301" y="0" type="line"/>
      <point x="152" y="0" type="line"/>
    </contour>
    <contour>
      <point x="301" y="1312" type="line"/>
      <point x="301" y="750" type="line"/>
      <point x="664" y="750" type="line"/>
      <point x="829" y="750"/>
      <point x="925" y="826" type="qcurve"/>
      <point x="1027" y="902"/>
      <point x="1027" y="1033" type="qcurve"/>
      <point x="1030" y="1164"/>
      <point x="927" y="1238" type="qcurve"/>
      <point x="828" y="1314"/>
      <point x="664" y="1312" type="qcurve"/>
    </contour>
    <contour>
      <point x="439" y="1822" type="line"/>
      <point x="549" y="1822" type="line"/>
      <point x="699" y="1656" type="line"/>
      <point x="851" y="1822" type="line"/>
      <point x="964" y="1822" type="line"/>
      <point x="767" y="1558" type="line"/>
      <point x="631" y="1558" type="line"/>
    </contour>
  </outline>
</glyph>
<glyph name="scircumflex" format="2">
  <advance width="1004"/>
  <unicode hex="015D"/>
  <outline>
    <contour>
      <point x="834" y="869" type="qcurve"/>
      <point x="732" y="765" type="line"/>
      <point x="620" y="884"/>
      <point x="465" y="890" type="qcurve"/>
      <point x="288" y="884"/>
      <point x="271" y="746" type="qcurve"/>
      <point x="271" y="662"/>
      <point x="334" y="633" type="qcurve"/>
      <point x="398" y="604"/>
      <point x="512" y="566" type="qcurve"/>
      <point x="704" y="520"/>
      <point x="784" y="461" type="qcurve"/>
      <point x="865" y="403"/>
      <point x="865" y="275" type="qcurve"/>
      <point x="844" y="-8"/>
      <point x="521" y="-23" type="qcurve"/>
      <point x="241" y="-22"/>
      <point x="88" y="146" type="qcurve"/>
      <point x="193" y="252" type="line"/>
      <point x="316" y="105"/>
      <point x="521" y="107" type="qcurve"/>
      <point x="699" y="101"/>
      <point x="720" y="275" type="qcurve"/>
      <point x="720" y="390"/>
      <point x="474" y="435" type="qcurve"/>
      <point x="282" y="480"/>
      <point x="203" y="547" type="qcurve"/>
      <point x="125" y="616"/>
      <point x="125" y="746" type="qcurve"/>
      <point x="124" y="858"/>
      <point x="229" y="939" type="qcurve"/>
      <point x="334" y="1021"/>
      <point x="482" y="1021" type="qcurve"/>
      <point x="603" y="1014"/>
      <point x="680" y="978" type="qcurve"/>
      <point x="758" y="944"/>
    </contour>
    <contour>
      <point x="392" y="1388" type="line"/>
      <point x="527" y="1388" type="line"/>
      <point x="724" y="1123" type="line"/>
      <point x="611" y="1123" type="line"/>
      <point x="459" y="1287" type="line"/>
      <point x="310" y="1123" type="line"/>
      <point x="199" y="1123" type="line"/>
    </contour>
  </outline>
</glyph>
<glyph name="scedilla" format="2">
  <advance width="1004"/>
  <unicode hex="015F"/>
  <outline>
    <contour>
      <point x="834" y="869" type="qcurve"/>
      <point x="732" y="765" type="line"/>
      <point x="620" y="884"/>
      <point x="465" y="890" type="qcurve"/>
      <point x="288" y="884"/>
      <point x="271" y="746" type="qcurve"/>
      <point x="271" y="662"/>
      <point x="334" y="633" type="qcurve"/>
      <point x="398" y="604"/>
      <point x="512" y="566" type="qcurve"/>
      <point x="704" y="520"/>
      <point x="784" y="461" type="qcurve"/>
      <point x="865" y="403"/>
      <point x="865" y="275" type="qcurve"/>
      <point x="844" y="-8"/>
      <point x="521" y="-23" type="qcurve"/>
      <point x="241" y="-22"/>
      <point x="88" y="146" type="qcurve"/>
      <point x="193" y="252" type="line"/>
      <point x="316" y="105"/>
      <point x="521" y="107" type="qcurve"/>
      <point x="699" y="101"/>
      <point x="720" y="275" type="qcurve"/>
      <point x="720" y="390"/>
      <point x="474" y="435" type="qcurve"/>
      <point x="282" y="480"/>
      <point x="203" y="547" type="qcurve"/>
      <point x="125" y="616"/>
      <point x="125" y="746" type="qcurve"/>
      <point x="124" y="858"/>
      <point x="229" y="939" type="qcurve"/>
      <point x="334" y="1021"/>
      <point x="482" y="1021" type="qcurve"/>
      <point x="603" y="1014"/>
      <point x="680" y="978" type="qcurve"/>
      <point x="758" y="944"/>
    </contour>
    <contour>
      <point x="506" y="-234" type="qcurve"/>
      <point x="566" y="-232"/>
      <point x="603" y="-266" type="qcurve"/>
      <point x="645" y="-300"/>
      <point x="642" y="-359" type="qcurve"/>
      <point x="642" y="-428"/>
      <point x="586" y="-472" type="qcurve"/>
      <point x="534" y="-514"/>
      <point x="451" y="-515" type="qcurve"/>
      <point x="406" y="-515"/>
      <point x="359" y="-500" type="qcurve"/>
      <point x="313" y="-484"/>
      <point x="281" y="-461" type="qcurve"/>
      <point x="318" y="-381" type="line"/>
      <point x="376" y="-423"/>
      <point x="445" y="-426" type="qcurve"/>
      <point x="486" y="-426"/>
      <point x="512" y="-406" type="qcurve"/>
      <point x="542" y="-382"/>
      <point x="539" y="-353" type="qcurve"/>
      <point x="542" y="-321"/>
      <point x="521" y="-305" type="qcurve"/>
      <point x="500" y="-284"/>
      <point x="463" y="-285" type="qcurve"/>
      <point x="428" y="-284"/>
      <point x="400" y="-308" type="qcurve"/>
      <point x="369" y="-275" type="line"/>
      <point x="433" y="-125" type="line"/>
      <point x="531" y="-125" type="line"/>
      <point x="486" y="-236" type="line"/>
      <point x="494" y="-232"/>
    </contour>
  </outline>
</glyph>
<glyph name="Tcedilla" format="2">
  <advance width="1214"/>
  <unicode hex="0162"/>
  <outline>
    <contour>
      <point x="531" y="1312" type="line"/>
      <point x="88" y="1312" type="line"/>
      <point x="88" y="1456" type="line"/>
      <point x="1128" y="1456" type="line"/>
      <point x="1128" y="1312" type="line"/>
      <point x="681" y="1312" type="line"/>
      <point x="681" y="0" type="line"/>
      <point x="531" y="0" type="line"/>
    </contour>
    <contour>
      <point x="654" y="-211" type="qcurve"/>
      <point x="714" y="-208"/>
      <point x="750" y="-244" type="qcurve"/>
      <point x="792" y="-278"/>
      <point x="789" y="-336" type="qcurve"/>
      <point x="790" y="-405"/>
      <point x="734" y="-449" type="qcurve"/>
      <point x="682" y="-492"/>
      <point x="599" y="-492" type="qcurve"/>
      <point x="554" y="-492"/>
      <point x="506" y="-478" type="qcurve"/>
      <point x="460" y="-460"/>
      <point x="428" y="-439" type="qcurve"/>
      <point x="465" y="-359" type="line"/>
      <point x="523" y="-401"/>
      <point x="592" y="-404" type="qcurve"/>
      <point x="634" y="-404"/>
      <point x="660" y="-383" type="qcurve"/>
      <point x="690" y="-360"/>
      <point x="687" y="-330" type="qcurve"/>
      <point x="690" y="-298"/>
      <point x="668" y="-283" type="qcurve"/>
      <point x="648" y="-262"/>
      <point x="611" y="-262" type="qcurve"/>
      <point x="577" y="-262"/>
      <point x="547" y="-285" type="qcurve"/>
      <point x="517" y="-252" type="line"/>
      <point x="580" y="-102" type="line"/>
      <point x="679" y="-102" type="line"/>
      <point x="633" y="-213" type="line"/>
      <point x="642" y="-208"/>
    </contour>
  </outline>
</glyph>
<glyph name="tcedilla" format="2">
  <advance width="713"/>
  <unicode hex="0163"/>
  <outline>
    <contour>
      <point x="228" y="0" type="line"/>
      <point x="228" y="867" type="line"/>
      <point x="72" y="867" type="line"/>
      <point x="72" y="994" type="line"/>
      <point x="228" y="994" type="line"/>
      <point x="228" y="1267" type="line"/>
      <point x="371" y="1267" type="line"/>
      <point x="371" y="994" type="line"/>
      <point x="619" y="994" type="line"/>
      <point x="619" y="867" type="line"/>
      <point x="371" y="867" type="line"/>
      <point x="373" y="0" type="line"/>
    </contour>
    <contour>
      <point x="392" y="-211" type="qcurve"/>
      <point x="452" y="-208"/>
      <point x="488" y="-244" type="qcurve"/>
      <point x="530" y="-278"/>
      <point x="527" y="-336" type="qcurve"/>
      <point x="528" y="-405"/>
      <point x="472" y="-449" type="qcurve"/>
      <point x="418" y="-492"/>
      <point x="336" y="-492" type="qcurve"/>
      <point x="292" y="-492"/>
      <point x="244" y="-478" type="qcurve"/>
      <point x="198" y="-460"/>
      <point x="166" y="-439" type="qcurve"/>
      <point x="203" y="-359" type="line"/>
      <point x="260" y="-401"/>
      <point x="330" y="-404" type="qcurve"/>
      <point x="372" y="-404"/>
      <point x="398" y="-383" type="qcurve"/>
      <point x="426" y="-360"/>
      <point x="424" y="-330" type="qcurve"/>
      <point x="427" y="-298"/>
      <point x="406" y="-283" type="qcurve"/>
      <point x="386" y="-262"/>
      <point x="348" y="-262" type="qcurve"/>
      <point x="315" y="-262"/>
      <point x="285" y="-285" type="qcurve"/>
      <point x="254" y="-252" type="line"/>
      <point x="318" y="-102" type="line"/>
      <point x="416" y="-102" type="line"/>
      <point x="371" y="-213" type="line"/>
      <point x="380" y="-208"/>
    </contour>
  </outline>
</glyph>
<glyph name="Tcaron" format="2">
  <advance width="1214"/>
  <unicode hex="0164"/>
  <outline>
    <contour>
      <point x="531" y="1312" type="line"/>
      <point x="88" y="1312" type="line"/>
      <point x="88" y="1456" type="line"/>
      <point x="1128" y="1456" type="line"/>
      <point x="1128" y="1312" type="line"/>
      <point x="681" y="1312" type="line"/>
      <point x="681" y="0" type="line"/>
      <point x="531" y="0" type="line"/>
    </contour>
    <contour>
      <point x="346" y="1822" type="line"/>
      <point x="457" y="1822" type="line"/>
      <point x="607" y="1656" type="line"/>
      <point x="758" y="1822" type="line"/>
      <point x="871" y="1822" type="line"/>
      <point x="674" y="1558" type="line"/>
      <point x="539" y="1558" type="line"/>
    </contour>
  </outline>
</glyph>
<glyph name="Ubreve" format="2">
  <advance width="1438"/>
  <unicode hex="016C"/>
  <outline>
    <contour>
      <point x="720" y="-23" type="qcurve"/>
      <point x="564" y="-23"/>
      <point x="435" y="51" type="qcurve"/>
      <point x="308" y="128"/>
      <point x="238" y="254" type="qcurve"/>
      <point x="169" y="388"/>
      <point x="166" y="549" type="qcurve"/>
      <point x="166" y="1456" type="line"/>
      <point x="316" y="1456" type="line"/>
      <point x="316" y="549" type="line"/>
      <point x="316" y="426"/>
      <point x="369" y="326" type="qcurve"/>
      <point x="420" y="228"/>
      <point x="510" y="170" type="qcurve"/>
      <point x="603" y="116"/>
      <point x="720" y="113" type="qcurve"/>
      <point x="834" y="116"/>
      <point x="925" y="170" type="qcurve"/>
      <point x="1018" y="226"/>
      <point x="1070" y="324" type="qcurve"/>
      <point x="1124" y="424"/>
      <point x="1121" y="549" type="qcurve"/>
      <point x="1121" y="1456" type="line"/>
      <point x="1271" y="1456" type="line"/>
      <point x="1271" y="549" type="line"/>
      <point x="1275" y="388"/>
      <point x="1203" y="254" type="qcurve"/>
      <point x="1136" y="128"/>
      <point x="1007" y="51" type="qcurve"/>
      <point x="878" y="-23"/>
    </contour>
    <contour>
      <point x="722" y="1558" type="qcurve"/>
      <point x="647" y="1558"/>
      <point x="572" y="1587" type="qcurve"/>
      <point x="498" y="1618"/>
      <point x="439" y="1675" type="qcurve"/>
      <point x="531" y="1765" type="line"/>
      <point x="569" y="1728"/>
      <point x="617" y="1704" type="qcurve"/>
      <point x="671" y="1683"/>
      <point x="722" y="1683" type="qcurve"/>
      <point x="772" y="1683"/>
      <point x="820" y="1704" type="qcurve"/>
      <point x="876" y="1728"/>
      <point x="912" y="1765" type="qcurve"/>
      <point x="1000" y="1675" type="line"/>
      <point x="949" y="1621"/>
      <point x="873" y="1589" type="qcurve"/>
      <point x="803" y="1558"/>
    </contour>
  </outline>
</glyph>
<glyph name="ubreve" format="2">
  <advance width="1141"/>
  <unicode hex="016D"/>
  <outline>
    <contour>
      <point x="520" y="-25" type="qcurve"/>
      <point x="411" y="-26"/>
      <point x="327" y="25" type="qcurve"/>
      <point x="239" y="73"/>
      <point x="194" y="160" type="qcurve"/>
      <point x="145" y="247"/>
      <point x="147" y="361" type="qcurve"/>
      <point x="147" y="996" type="line"/>
      <point x="290" y="996" type="line"/>
      <point x="290" y="381" type="line"/>
      <point x="291" y="258"/>
      <point x="360" y="182" type="qcurve"/>
      <point x="427" y="106"/>
      <point x="538" y="107" type="qcurve"/>
      <point x="620" y="107"/>
      <point x="692" y="139" type="qcurve"/>
      <point x="765" y="172"/>
      <point x="807" y="236" type="qcurve"/>
      <point x="849" y="292"/>
      <point x="848" y="361" type="qcurve"/>
      <point x="848" y="996" type="line"/>
      <point x="993" y="996" type="line"/>
      <point x="993" y="0" type="line"/>
      <point x="848" y="0" type="line"/>
      <point x="848" y="160" type="line"/>
      <point x="806" y="80"/>
      <point x="714" y="29" type="qcurve"/>
      <point x="625" y="-25"/>
    </contour>
    <contour>
      <point x="575" y="1099" type="qcurve"/>
      <point x="500" y="1100"/>
      <point x="425" y="1128" type="qcurve"/>
      <point x="353" y="1158"/>
      <point x="292" y="1216" type="qcurve"/>
      <point x="384" y="1306" type="line"/>
      <point x="421" y="1270"/>
      <point x="471" y="1244" type="qcurve"/>
      <point x="525" y="1224"/>
      <point x="575" y="1224" type="qcurve"/>
      <point x="625" y="1224"/>
      <point x="673" y="1244" type="qcurve"/>
      <point x="730" y="1270"/>
      <point x="766" y="1306" type="qcurve"/>
      <point x="854" y="1216" type="line"/>
      <point x="803" y="1160"/>
      <point x="727" y="1130" type="qcurve"/>
      <point x="655" y="1100"/>
    </contour>
  </outline>
</glyph>
<glyph name="uring" format="2">
  <advance width="1141"/>
  <unicode hex="016F"/>
  <outline>
    <contour>
      <point x="520" y="-25" type="qcurve"/>
      <point x="411" y="-26"/>
      <point x="327" y="25" type="qcurve"/>
      <point x="239" y="73"/>
      <point x="194" y="160" type="qcurve"/>
      <point x="145" y="247"/>
      <point x="147" y="361" type="qcurve"/>
      <point x="147" y="996" type="line"/>
      <point x="290" y="996" type="line"/>
      <point x="290" y="381" type="line"/>
      <point x="291" y="258"/>
      <point x="360" y="182" type="qcurve"/>
      <point x="427" y="106"/>
      <point x="538" y="107" type="qcurve"/>
      <point x="620" y="107"/>
      <point x="692" y="139" type="qcurve"/>
      <point x="765" y="172"/>
      <point x="807" y="236" type="qcurve"/>
      <point x="849" y="292"/>
      <point x="848" y="361" type="qcurve"/>
      <point x="848" y="996" type="line"/>
      <point x="993" y="996" type="line"/>
      <point x="993" y="0" type="line"/>
      <point x="848" y="0" type="line"/>
      <point x="848" y="160" type="line"/>
      <point x="806" y="80"/>
      <point x="714" y="29" type="qcurve"/>
      <point x="625" y="-25"/>
    </contour>
    <contour>
      <point x="573" y="1099" type="qcurve"/>
      <point x="492" y="1099"/>
      <point x="432" y="1156" type="qcurve"/>
      <point x="375" y="1214"/>
      <point x="374" y="1298" type="qcurve"/>
      <point x="375" y="1382"/>
      <point x="432" y="1437" type="qcurve"/>
      <point x="492" y="1496"/>
      <point x="573" y="1496" type="qcurve"/>
      <point x="660" y="1496"/>
      <point x="714" y="1437" type="qcurve"/>
      <point x="772" y="1382"/>
      <point x="772" y="1298" type="qcurve"/>
      <point x="772" y="1214"/>
      <point x="714" y="1156" type="qcurve"/>
      <point x="660" y="1099"/>
    </contour>
    <contour>
      <point x="573" y="1185" type="qcurve"/>
      <point x="619" y="1185"/>
      <point x="653" y="1218" type="qcurve"/>
      <point x="689" y="1250"/>
      <point x="688" y="1298" type="qcurve"/>
      <point x="688" y="1346"/>
      <point x="655" y="1378" type="qcurve"/>
      <point x="621" y="1410"/>
      <point x="573" y="1410" type="qcurve"/>
      <point x="528" y="1410"/>
      <point x="495" y="1380" type="qcurve"/>
      <point x="463" y="1346"/>
      <point x="460" y="1298" type="qcurve"/>
      <point x="460" y="1250"/>
      <point x="493" y="1218" type="qcurve"/>
      <point x="529" y="1185"/>
    </contour>
  </outline>
</glyph>
<glyph name="udblacute" format="2">
  <advance width="1141"/>
  <unicode hex="0171"/>
  <outline>
    <contour>
      <point x="520" y="-25" type="qcurve"/>
      <point x="411" y="-26"/>
      <point x="327" y="25" type="qcurve"/>
      <point x="239" y="73"/>
      <point x="194" y="160" type="qcurve"/>
      <point x="145" y="247"/>
      <point x="147" y="361" type="qcurve"/>
      <point x="147" y="996" type="line"/>
      <point x="290" y="996" type="line"/>
      <point x="290" y="381" type="line"/>
      <point x="291" y="258"/>
      <point x="360" y="182" type="qcurve"/>
      <point x="427" y="106"/>
      <point x="538" y="107" type="qcurve"/>
      <point x="620" y="107"/>
      <point x="692" y="139" type="qcurve"/>
      <point x="765" y="172"/>
      <point x="807" y="236" type="qcurve"/>
      <point x="849" y="292"/>
      <point x="848" y="361" type="qcurve"/>
      <point x="848" y="996" type="line"/>
      <point x="993" y="996" type="line"/>
      <point x="993" y="0" type="line"/>
      <point x="848" y="0" type="line"/>
      <point x="848" y="160" type="line"/>
      <point x="806" y="80"/>
      <point x="714" y="29" type="qcurve"/>
      <point x="625" y="-25"/>
    </contour>
    <contour>
      <point x="421" y="1378" type="line"/>
      <point x="573" y="1343" type="line"/>
      <point x="300" y="1099" type="line"/>
      <point x="188" y="1099" type="line"/>
    </contour>
    <contour>
      <point x="807" y="1374" type="line"/>
      <point x="958" y="1339" type="line"/>
      <point x="686" y="1099" type="line"/>
      <point x="573" y="1099" type="line"/>
    </contour>
  </outline>
</glyph>
<glyph name="uogonek" format="2">
  <advance width="1141"/>
  <unicode hex="0173"/>
  <outline>
    <contour>
      <point x="520" y="-25" type="qcurve"/>
      <point x="411" y="-26"/>
      <point x="327" y="25" type="qcurve"/>
      <point x="239" y="73"/>
      <point x="194" y="160" type="qcurve"/>
      <point x="145" y="247"/>
      <point x="147" y="361" type="qcurve"/>
      <point x="147" y="996" type="line"/>
      <point x="290" y="996" type="line"/>
      <point x="290" y="381" type="line"/>
      <point x="291" y="258"/>
      <point x="360" y="182" type="qcurve"/>
      <point x="427" y="106"/>
      <point x="538" y="107" type="qcurve"/>
      <point x="620" y="107"/>
      <point x="692" y="139" type="qcurve"/>
      <point x="765" y="172"/>
      <point x="807" y="236" type="qcurve"/>
      <point x="849" y="292"/>
      <point x="848" y="361" type="qcurve"/>
      <point x="848" y="996" type="line"/>
      <point x="993" y="996" type="line"/>
      <point x="993" y="0" type="line"/>
      <point x="848" y="0" type="line"/>
      <point x="848" y="160" type="line"/>
      <point x="806" y="80"/>
      <point x="714" y="29" type="qcurve"/>
      <point x="625" y="-25"/>
    </contour>
    <contour>
      <point x="600" y="-496" type="qcurve"/>
      <point x="506" y="-498"/>
      <point x="446" y="-445" type="qcurve"/>
      <point x="389" y="-384"/>
      <point x="389" y="-291" type="qcurve"/>
      <point x="387" y="-236"/>
      <point x="417" y="-191" type="qcurve"/>
      <point x="449" y="-146"/>
      <point x="491" y="-127" type="qcurve"/>
      <point x="608" y="-164" type="line"/>
      <point x="563" y="-164"/>
      <point x="530" y="-195" type="qcurve"/>
      <point x="497" y="-225"/>
      <point x="497" y="-273" type="qcurve"/>
      <point x="497" y="-324"/>
      <point x="526" y="-355" type="qcurve"/>
      <point x="556" y="-385"/>
      <point x="608" y="-383" type="qcurve"/>
      <point x="667" y="-380"/>
      <point x="700" y="-346" type="qcurve"/>
      <point x="760" y="-443" type="line"/>
      <point x="694" y="-496"/>
    </contour>
  </outline>
</glyph>
<glyph name="Ycircumflex" format="2">
  <advance width="1395"/>
  <unicode hex="0176"/>
  <outline>
    <contour>
      <point x="621" y="594" type="line"/>
      <point x="35" y="1456" type="line"/>
      <point x="221" y="1456" type="line"/>
      <point x="705" y="750" type="line"/>
      <point x="1181" y="1456" type="line"/>
      <point x="1361" y="1456" type="line"/>
      <point x="779" y="594" type="line"/>
      <point x="779" y="0" type="line"/>
      <point x="621" y="0" type="line"/>
    </contour>
    <contour>
      <point x="629" y="1822" type="line"/>
      <point x="765" y="1822" type="line"/>
      <point x="961" y="1558" type="line"/>
      <point x="849" y="1558" type="line"/>
      <point x="697" y="1722" type="line"/>
      <point x="547" y="1558" type="line"/>
      <point x="437" y="1558" type="line"/>
    </contour>
  </outline>
</glyph>
<glyph name="Ydieresis" format="2">
  <advance width="1395"/>
  <unicode hex="0178"/>
  <outline>
    <contour>
      <point x="621" y="594" type="line"/>
      <point x="35" y="1456" type="line"/>
      <point x="221" y="1456" type="line"/>
      <point x="705" y="750" type="line"/>
      <point x="1181" y="1456" type="line"/>
      <point x="1361" y="1456" type="line"/>
      <point x="779" y="594" type="line"/>
      <point x="779" y="0" type="line"/>
      <point x="621" y="0" type="line"/>
    </contour>
    <contour>
      <point x="512" y="1736" type="qcurve"/>
      <point x="550" y="1736"/>
      <point x="576" y="1710" type="qcurve"/>
      <point x="603" y="1684"/>
      <point x="603" y="1646" type="qcurve"/>
      <point x="603" y="1610"/>
      <point x="576" y="1584" type="qcurve"/>
      <point x="550" y="1558"/>
      <point x="512" y="1558" type="qcurve"/>
      <point x="476" y="1558"/>
      <point x="450" y="1583" type="qcurve"/>
      <point x="424" y="1610"/>
      <point x="424" y="1646" type="qcurve"/>
      <point x="424" y="1683"/>
      <point x="450" y="1709" type="qcurve"/>
      <point x="476" y="1736"/>
    </contour>
    <contour>
      <point x="884" y="1736" type="qcurve"/>
      <point x="920" y="1736"/>
      <point x="947" y="1710" type="qcurve"/>
      <point x="974" y="1684"/>
      <point x="974" y="1648" type="qcurve"/>
      <point x="974" y="1612"/>
      <point x="947" y="1585" type="qcurve"/>
      <point x="920" y="1558"/>
      <point x="884" y="1558" type="qcurve"/>
      <point x="848" y="1558"/>
      <point x="822" y="1584" type="qcurve"/>
      <point x="798" y="1612"/>
      <point x="797" y="1648" type="qcurve"/>
      <point x="798" y="1683"/>
      <point x="822" y="1709" type="qcurve"/>
      <point x="848" y="1736"/>
    </contour>
  </outline>
</glyph>
<glyph name="zacute" format="2">
  <advance width="991"/>
  <unicode hex="017A"/>
  <outline>
    <contour>
      <point x="102" y="113" type="line"/>
      <point x="691" y="861" type="line"/>
      <point x="115" y="861" type="line"/>
      <point x="115" y="996" type="line"/>
      <point x="886" y="996" type="line"/>
      <point x="886" y="882" type="line"/>
      <point x="295" y="135" type="line"/>
      <point x="890" y="135" type="line"/>
      <point x="890" y="0" type="line"/>
      <point x="102" y="0" type="line"/>
    </contour>
    <contour>
      <point x="537" y="1376" type="line"/>
      <point x="689" y="1341" type="line"/>
      <point x="416" y="1099" type="line"/>
      <point x="303" y="1099" type="line"/>
    </contour>
  </outline>
</glyph>
<glyph name="Uhorn" format="2">
  <advance width="1438"/>
  <unicode hex="01AF"/>
  <outline>
    <contour>
      <point x="720" y="-23" type="qcurve"/>
      <point x="564" y="-23"/>
      <point x="435" y="51" type="qcurve"/>
      <point x="308" y="128"/>
      <point x="238" y="254" type="qcurve"/>
      <point x="169" y="389"/>
      <point x="166" y="549" type="qcurve"/>
      <point x="166" y="1456" type="line"/>
      <point x="316" y="1456" type="line"/>
      <point x="316" y="549" type="line"/>
      <point x="316" y="426"/>
      <point x="369" y="326" type="qcurve"/>
      <point x="420" y="228"/>
      <point x="510" y="170" type="qcurve"/>
      <point x="603" y="116"/>
      <point x="720" y="113" type="qcurve"/>
      <point x="834" y="116"/>
      <point x="925" y="170" type="qcurve"/>
      <point x="1018" y="226"/>
      <point x="1070" y="324" type="qcurve"/>
      <point x="1124" y="424"/>
      <point x="1121" y="549" type="qcurve"/>
      <point x="1121" y="1456" type="line"/>
      <point x="1271" y="1456" type="line"/>
      <point x="1271" y="549" type="line"/>
      <point x="1275" y="389"/>
      <point x="1203" y="254" type="qcurve"/>
      <point x="1136" y="128"/>
      <point x="1007" y="51" type="qcurve"/>
      <point x="878" y="-23"/>
    </contour>
    <contour>
      <point x="612" y="1611" type="line"/>
      <point x="690" y="1702"/>
      <point x="714" y="1790" type="qcurve"/>
      <point x="672" y="1790"/>
      <point x="638" y="1820" type="qcurve"/>
      <point x="608" y="1854"/>
      <point x="608" y="1896" type="qcurve"/>
      <point x="608" y="1938"/>
      <point x="638" y="1966" type="qcurve"/>
      <point x="670" y="1998"/>
      <point x="714" y="1999" type="qcurve"/>
      <point x="768" y="2002"/>
      <point x="798" y="1956" type="qcurve"/>
      <point x="831" y="1916"/>
      <point x="831" y="1845" type="qcurve"/>
      <point x="833" y="1794"/>
      <point x="800" y="1728" type="qcurve"/>
      <point x="770" y="1670"/>
      <point x="683" y="1558" type="qcurve"/>
    </contour>
  </outline>
</glyph>
<glyph name="uhorn" format="2">
  <advance width="1141"/>
  <unicode hex="01B0"/>
  <outline>
    <contour>
      <point x="515" y="-25" type="qcurve"/>
      <point x="406" y="-26"/>
      <point x="322" y="25" type="qcurve"/>
      <point x="234" y="73"/>
      <point x="189" y="160" type="qcurve"/>
      <point x="139" y="247"/>
      <point x="141" y="361" type="qcurve"/>
      <point x="141" y="996" type="line"/>
      <point x="285" y="996" type="line"/>
      <point x="285" y="381" type="line"/>
      <point x="286" y="258"/>
      <point x="355" y="182" type="qcurve"/>
      <point x="422" y="107"/>
      <point x="533" y="107" type="qcurve"/>
      <point x="615" y="107"/>
      <point x="687" y="139" type="qcurve"/>
      <point x="758" y="172"/>
      <point x="802" y="236" type="qcurve"/>
      <point x="844" y="292"/>
      <point x="843" y="361" type="qcurve"/>
      <point x="843" y="996" type="line"/>
      <point x="988" y="996" type="line"/>
      <point x="988" y="0" type="line"/>
      <point x="843" y="0" type="line"/>
      <point x="843" y="160" type="line"/>
      <point x="802" y="80"/>
      <point x="709" y="29" type="qcurve"/>
      <point x="620" y="-25"/>
    </contour>
    <contour>
      <point x="455" y="1151" type="line"/>
      <point x="533" y="1242"/>
      <point x="557" y="1330" type="qcurve"/>
      <point x="515" y="1330"/>
      <point x="481" y="1360" type="qcurve"/>
      <point x="451" y="1394"/>
      <point x="451" y="1436" type="qcurve"/>
      <point x="451" y="1478"/>
      <point x="481" y="1506" type="qcurve"/>
      <point x="514" y="1538"/>
      <point x="557" y="1539" type="qcurve"/>
      <point x="611" y="1542"/>
      <point x="641" y="1496" type="qcurve"/>
      <point x="674" y="1456"/>
      <point x="674" y="1385" type="qcurve"/>
      <point x="676" y="1334"/>
      <point x="643" y="1268" type="qcurve"/>
      <point x="613" y="1210"/>
      <point x="526" y="1098" type="qcurve"/>
    </contour>
  </outline>
</glyph>
<glyph name="Icaron" format="2">
  <advance width="455"/>
  <unicode hex="01CF"/>
  <outline>
    <contour>
      <point x="152" y="1456" type="line"/>
      <point x="301" y="1456" type="line"/>
      <point x="301" y="0" type="line"/>
      <point x="152" y="0" type="line"/>
    </contour>
    <contour>
      <point x="-37" y="1822" type="line"/>
      <point x="74" y="1822" type="line"/>
      <point x="223" y="1656" type="line"/>
      <point x="375" y="1822" type="line"/>
      <point x="488" y="1822" type="line"/>
      <point x="291" y="1558" type="line"/>
      <point x="156" y="1558" type="line"/>
    </contour>
  </outline>
</glyph>
<glyph name="icaron" format="2">
  <advance width="434"/>
  <unicode hex="01D0"/>
  <outline>
    <contour>
      <point x="144" y="996" type="line"/>
      <point x="289" y="996" type="line"/>
      <point x="289" y="0" type="line"/>
      <point x="144" y="0" type="line"/>
    </contour>
    <contour>
      <point x="-46" y="1363" type="line"/>
      <point x="65" y="1363" type="line"/>
      <point x="214" y="1197" type="line"/>
      <point x="366" y="1363" type="line"/>
      <point x="479" y="1363" type="line"/>
      <point x="282" y="1098" type="line"/>
      <point x="147" y="1098" type="line"/>
    </contour>
  </outline>
</glyph>
<glyph name="ocaron" format="2">
  <advance width="1217"/>
  <unicode hex="01D2"/>
  <outline>
    <contour>
      <point x="609" y="-23" type="qcurve"/>
      <point x="473" y="-20"/>
      <point x="353" y="49" type="qcurve"/>
      <point x="236" y="120"/>
      <point x="164" y="240" type="qcurve"/>
      <point x="94" y="362"/>
      <point x="94" y="498" type="qcurve"/>
      <point x="94" y="640"/>
      <point x="162" y="758" type="qcurve"/>
      <point x="234" y="882"/>
      <point x="353" y="949" type="qcurve"/>
      <point x="473" y="1021"/>
      <point x="609" y="1021" type="qcurve"/>
      <point x="748" y="1021"/>
      <point x="865" y="949" type="qcurve"/>
      <point x="986" y="882"/>
      <point x="1054" y="758" type="qcurve"/>
      <point x="1126" y="640"/>
      <point x="1123" y="498" type="qcurve"/>
      <point x="1123" y="427"/>
      <point x="1108" y="365" type="qcurve"/>
      <point x="1094" y="304"/>
      <point x="1056" y="242" type="qcurve"/>
      <point x="988" y="122"/>
      <point x="867" y="49" type="qcurve"/>
      <point x="750" y="-20"/>
    </contour>
    <contour>
      <point x="609" y="105" type="qcurve"/>
      <point x="705" y="108"/>
      <point x="789" y="160" type="qcurve"/>
      <point x="874" y="214"/>
      <point x="920" y="301" type="qcurve"/>
      <point x="972" y="394"/>
      <point x="972" y="498" type="qcurve"/>
      <point x="974" y="603"/>
      <point x="922" y="693" type="qcurve"/>
      <point x="876" y="784"/>
      <point x="791" y="836" type="qcurve"/>
      <point x="705" y="890"/>
      <point x="609" y="890" type="qcurve"/>
      <point x="512" y="892"/>
      <point x="428" y="838" type="qcurve"/>
      <point x="344" y="786"/>
      <point x="293" y="693" type="qcurve"/>
      <point x="246" y="603"/>
      <point x="246" y="498" type="qcurve"/>
      <point x="244" y="394"/>
      <point x="291" y="303" type="qcurve"/>
      <point x="342" y="214"/>
      <point x="426" y="160" type="qcurve"/>
      <point x="513" y="108"/>
    </contour>
    <contour>
      <point x="348" y="1388" type="line"/>
      <point x="459" y="1388" type="line"/>
      <point x="609" y="1222" type="line"/>
      <point x="761" y="1388" type="line"/>
      <point x="873" y="1388" type="line"/>
      <point x="676" y="1123" type="line"/>
      <point x="541" y="1123" type="line"/>
    </contour>
  </outline>
</glyph>
<glyph name="Oogonek" format="2">
  <advance width="1702"/>
  <unicode hex="01EA"/>
  <outline>
    <contour>
      <point x="845" y="-23" type="qcurve"/>
      <point x="649" y="-22"/>
      <point x="478" y="80" type="qcurve"/>
      <point x="306" y="184"/>
      <point x="203" y="355" type="qcurve"/>
      <point x="98" y="527"/>
      <point x="98" y="728" type="qcurve"/>
      <point x="98" y="932"/>
      <point x="203" y="1101" type="qcurve"/>
      <point x="308" y="1274"/>
      <point x="476" y="1376" type="qcurve"/>
      <point x="648" y="1481"/>
      <point x="845" y="1478" type="qcurve"/>
      <point x="1046" y="1480"/>
      <point x="1212" y="1378" type="qcurve"/>
      <point x="1380" y="1276"/>
      <point x="1484" y="1103" type="qcurve"/>
      <point x="1588" y="934"/>
      <point x="1585" y="728" type="qcurve"/>
      <point x="1588" y="527"/>
      <point x="1484" y="355" type="qcurve"/>
      <point x="1385" y="187"/>
      <point x="1214" y="82" type="qcurve"/>
      <point x="1046" y="-20"/>
    </contour>
    <contour>
      <point x="845" y="129" type="qcurve"/>
      <point x="996" y="132"/>
      <point x="1136" y="213" type="qcurve"/>
      <point x="1276" y="295"/>
      <point x="1353" y="433" type="qcurve"/>
      <point x="1436" y="574"/>
      <point x="1433" y="728" type="qcurve"/>
      <point x="1434" y="882"/>
      <point x="1353" y="1025" type="qcurve"/>
      <point x="1276" y="1164"/>
      <point x="1138" y="1244" type="qcurve"/>
      <point x="998" y="1326"/>
      <point x="845" y="1326" type="qcurve"/>
      <point x="692" y="1328"/>
      <point x="551" y="1246" type="qcurve"/>
      <point x="482" y="1204"/>
      <point x="429" y="1152" type="qcurve"/>
      <point x="376" y="1101"/>
      <point x="334" y="1029" type="qcurve"/>
      <point x="254" y="887"/>
      <point x="254" y="728" type="qcurve"/>
      <point x="251" y="574"/>
      <point x="332" y="433" type="qcurve"/>
      <point x="376" y="364"/>
      <point x="427" y="310" type="qcurve"/>
      <point x="480" y="256"/>
      <point x="549" y="213" type="qcurve"/>
      <point x="690" y="127"/>
    </contour>
    <contour>
      <point x="869" y="-494" type="qcurve"/>
      <point x="776" y="-496"/>
      <point x="715" y="-443" type="qcurve"/>
      <point x="658" y="-382"/>
      <point x="658" y="-289" type="qcurve"/>
      <point x="656" y="-234"/>
      <point x="687" y="-189" type="qcurve"/>
      <point x="719" y="-144"/>
      <point x="761" y="-125" type="qcurve"/>
      <point x="877" y="-162" type="line"/>
      <point x="832" y="-162"/>
      <point x="800" y="-193" type="qcurve"/>
      <point x="767" y="-223"/>
      <point x="767" y="-271" type="qcurve"/>
      <point x="768" y="-322"/>
      <point x="795" y="-353" type="qcurve"/>
      <point x="825" y="-383"/>
      <point x="877" y="-381" type="qcurve"/>
      <point x="937" y="-378"/>
      <point x="970" y="-344" type="qcurve"/>
      <point x="1029" y="-441" type="line"/>
      <point x="965" y="-494"/>
    </contour>
  </outline>
</glyph>
<glyph name="jcaron" format="2">
  <advance width="434"/>
  <unicode hex="01F0"/>
  <outline>
    <contour>
      <point x="223" y="1179" type="qcurve"/>
      <point x="184" y="1177"/>
      <point x="156" y="1207" type="qcurve"/>
      <point x="126" y="1239"/>
      <point x="127" y="1273" type="qcurve"/>
      <point x="126" y="1312"/>
      <point x="154" y="1341" type="qcurve"/>
      <point x="182" y="1369"/>
      <point x="223" y="1369" type="qcurve"/>
      <point x="262" y="1372"/>
      <point x="291" y="1343" type="qcurve"/>
      <point x="321" y="1312"/>
      <point x="318" y="1273" type="qcurve"/>
      <point x="322" y="1239"/>
      <point x="293" y="1207" type="qcurve"/>
      <point x="265" y="1177"/>
    </contour>
    <contour>
      <point x="53" y="-402" type="qcurve"/>
      <point x="14" y="-402"/>
      <point x="-31" y="-394" type="qcurve"/>
      <point x="-72" y="-382"/>
      <point x="-102" y="-371" type="qcurve"/>
      <point x="-82" y="-252" type="line"/>
      <point x="-55" y="-260"/>
      <point x="-23" y="-269" type="qcurve"/>
      <point x="15" y="-272"/>
      <point x="43" y="-273" type="qcurve"/>
      <point x="91" y="-272"/>
      <point x="119" y="-238" type="qcurve"/>
      <point x="150" y="-204"/>
      <point x="150" y="-150" type="qcurve"/>
      <point x="150" y="996" type="line"/>
      <point x="295" y="996" type="line"/>
      <point x="295" y="-150" type="line"/>
      <point x="298" y="-260"/>
      <point x="228" y="-332" type="qcurve"/>
      <point x="158" y="-402"/>
    </contour>
    <contour>
      <point x="-152" y="1738" type="line"/>
      <point x="-41" y="1738" type="line"/>
      <point x="109" y="1572" type="line"/>
      <point x="260" y="1738" type="line"/>
      <point x="373" y="1738" type="line"/>
      <point x="176" y="1474" type="line"/>
      <point x="41" y="1474" type="line"/>
    </contour>
  </outline>
</glyph>
<glyph name="edblgrave" format="2">
  <advance width="1147"/>
  <unicode hex="0205"/>
  <outline>
    <contour>
      <point x="597" y="105" type="qcurve"/>
      <point x="686" y="108"/>
      <point x="773" y="139" type="qcurve"/>
      <point x="866" y="175"/>
      <point x="910" y="226" type="qcurve"/>
      <point x="998" y="131" type="line"/>
      <point x="936" y="62"/>
      <point x="822" y="20" type="qcurve"/>
      <point x="708" y="-20"/>
      <point x="599" y="-23" type="qcurve"/>
      <point x="464" y="-23"/>
      <point x="348" y="45" type="qcurve"/>
      <point x="234" y="112"/>
      <point x="164" y="232" type="qcurve"/>
      <point x="94" y="354"/>
      <point x="94" y="500" type="qcurve"/>
      <point x="92" y="648"/>
      <point x="158" y="765" type="qcurve"/>
      <point x="226" y="888"/>
      <point x="336" y="953" type="qcurve"/>
      <point x="452" y="1022"/>
      <point x="584" y="1021" type="qcurve"/>
      <point x="808" y="1021"/>
      <point x="931" y="865" type="qcurve"/>
      <point x="1058" y="709"/>
      <point x="1058" y="445" type="qcurve"/>
      <point x="242" y="445" type="line"/>
      <point x="258" y="295"/>
      <point x="353" y="201" type="qcurve"/>
      <point x="452" y="108"/>
    </contour>
    <contour>
      <point x="590" y="890" type="qcurve"/>
      <point x="455" y="892"/>
      <point x="359" y="804" type="qcurve"/>
      <point x="266" y="718"/>
      <point x="244" y="572" type="qcurve"/>
      <point x="914" y="572" type="line"/>
      <point x="900" y="718"/>
      <point x="816" y="802" type="qcurve"/>
      <point x="736" y="890"/>
    </contour>
    <contour>
      <point x="726" y="1402" type="line"/>
      <point x="575" y="1367" type="line"/>
      <point x="847" y="1123" type="line"/>
      <point x="960" y="1123" type="line"/>
    </contour>
    <contour>
      <point x="341" y="1398" type="line"/>
      <point x="189" y="1363" type="line"/>
      <point x="462" y="1123" type="line"/>
      <point x="575" y="1123" type="line"/>
    </contour>
  </outline>
</glyph>
<glyph name="rdblgrave" format="2">
  <advance width="743"/>
  <unicode hex="0211"/>
  <outline>
    <contour>
      <point x="303" y="802" type="line"/>
      <point x="348" y="902"/>
      <point x="451" y="959" type="qcurve"/>
      <point x="554" y="1022"/>
      <point x="689" y="1021" type="qcurve"/>
      <point x="689" y="890" type="line"/>
      <point x="578" y="890"/>
      <point x="490" y="849" type="qcurve"/>
      <point x="406" y="808"/>
      <point x="355" y="730" type="qcurve"/>
      <point x="304" y="654"/>
      <point x="303" y="558" type="qcurve"/>
      <point x="303" y="0" type="line"/>
      <point x="160" y="0" type="line"/>
      <point x="160" y="996" type="line"/>
      <point x="303" y="996" type="line"/>
    </contour>
    <contour>
      <point x="575" y="1402" type="line"/>
      <point x="424" y="1367" type="line"/>
      <point x="696" y="1123" type="line"/>
      <point x="809" y="1123" type="line"/>
    </contour>
    <contour>
      <point x="190" y="1398" type="line"/>
      <point x="38" y="1363" type="line"/>
      <point x="311" y="1123" type="line"/>
      <point x="424" y="1123" type="line"/>
    </contour>
  </outline>
</glyph>
<glyph name="Tcommabelow" format="2">
  <advance width="1214"/>
  <unicode hex="021A"/>
  <outline>
    <contour>
      <point x="531" y="1312" type="line"/>
      <point x="88" y="1312" type="line"/>
      <point x="88" y="1456" type="line"/>
      <point x="1128" y="1456" type="line"/>
      <point x="1128" y="1312" type="line"/>
      <point x="681" y="1312" type="line"/>
      <point x="681" y="0" type="line"/>
      <point x="531" y="0" type="line"/>
    </contour>
    <contour>
      <point x="517" y="-433" type="line"/>
      <point x="584" y="-354"/>
      <point x="599" y="-279" type="qcurve"/>
      <point x="569" y="-281"/>
      <point x="539" y="-254" type="qcurve"/>
      <point x="515" y="-226"/>
      <point x="515" y="-193" type="qcurve"/>
      <point x="512" y="-160"/>
      <point x="539" y="-131" type="qcurve"/>
      <point x="568" y="-102"/>
      <point x="601" y="-105" type="qcurve"/>
      <point x="646" y="-105"/>
      <point x="674" y="-141" type="qcurve"/>
      <point x="704" y="-176"/>
      <point x="703" y="-236" type="qcurve"/>
      <point x="706" y="-280"/>
      <point x="676" y="-334" type="qcurve"/>
      <point x="650" y="-382"/>
      <point x="576" y="-476" type="qcurve"/>
    </contour>
  </outline>
</glyph>
<glyph name="tcommabelow" format="2">
  <advance width="713"/>
  <unicode hex="021B"/>
  <outline>
    <contour>
      <point x="228" y="0" type="line"/>
      <point x="228" y="867" type="line"/>
      <point x="72" y="867" type="line"/>
      <point x="72" y="994" type="line"/>
      <point x="228" y="994" type="line"/>
      <point x="228" y="1267" type="line"/>
      <point x="371" y="1267" type="line"/>
      <point x="371" y="994" type="line"/>
      <point x="619" y="994" type="line"/>
      <point x="619" y="867" type="line"/>
      <point x="371" y="867" type="line"/>
      <point x="373" y="0" type="line"/>
    </contour>
    <contour>
      <point x="254" y="-433" type="line"/>
      <point x="322" y="-354"/>
      <point x="336" y="-279" type="qcurve"/>
      <point x="306" y="-281"/>
      <point x="277" y="-254" type="qcurve"/>
      <point x="252" y="-226"/>
      <point x="252" y="-193" type="qcurve"/>
      <point x="250" y="-160"/>
      <point x="277" y="-131" type="qcurve"/>
      <point x="305" y="-102"/>
      <point x="338" y="-105" type="qcurve"/>
      <point x="384" y="-105"/>
      <point x="412" y="-141" type="qcurve"/>
      <point x="442" y="-176"/>
      <point x="441" y="-236" type="qcurve"/>
      <point x="444" y="-280"/>
      <point x="414" y="-334" type="qcurve"/>
      <point x="388" y="-382"/>
      <point x="314" y="-476" type="qcurve"/>
    </contour>
  </outline>
</glyph>
<glyph name="Ymacron" format="2">
  <advance width="1395"/>
  <unicode hex="0232"/>
  <outline>
    <contour>
      <point x="621" y="594" type="line"/>
      <point x="35" y="1456" type="line"/>
      <point x="221" y="1456" type="line"/>
      <point x="705" y="750" type="line"/>
      <point x="1181" y="1456" type="line"/>
      <point x="1361" y="1456" type="line"/>
      <point x="779" y="594" type="line"/>
      <point x="779" y="0" type="line"/>
      <point x="621" y="0" type="line"/>
    </contour>
    <contour>
      <point x="546" y="1883" type="line"/>
      <point x="1071" y="1883" type="line"/>
      <point x="1071" y="1773" type="line"/>
      <point x="546" y="1773" type="line"/>
    </contour>
    <contour>
      <point x="326" y="1558" type="line"/>
      <point x="326" y="1558" type="line"/>
      <point x="326" y="1558" type="line"/>
      <point x="326" y="1558" type="line"/>
    </contour>
    <contour>
      <point x="326" y="1558" type="line"/>
      <point x="326" y="1558" type="line"/>
      <point x="326" y="1558" type="line"/>
      <point x="326" y="1558" type="line"/>
    </contour>
  </outline>
</glyph>
<glyph name="dotlessj" format="2">
  <advance width="434"/>
  <unicode hex="0237"/>
  <outline>
    <contour>
      <point x="47" y="-342" type="qcurve"/>
      <point x="8" y="-342"/>
      <point x="-37" y="-334" type="qcurve"/>
      <point x="-77" y="-324"/>
      <point x="-109" y="-312" type="qcurve"/>
      <point x="-88" y="-193" type="line"/>
      <point x="-62" y="-200"/>
      <point x="-29" y="-209" type="qcurve"/>
      <point x="9" y="-212"/>
      <point x="37" y="-213" type="qcurve"/>
      <point x="85" y="-212"/>
      <point x="113" y="-178" type="qcurve"/>
      <point x="144" y="-146"/>
      <point x="144" y="-90" type="qcurve"/>
      <point x="144" y="996" type="line"/>
      <point x="289" y="996" type="line"/>
      <point x="289" y="-90" type="line"/>
      <point x="292" y="-201"/>
      <point x="221" y="-273" type="qcurve"/>
      <point x="152" y="-342"/>
    </contour>
  </outline>
</glyph>
<glyph name="dotaccent" format="2">
  <advance width="420"/>
  <unicode hex="02D9"/>
  <unicode hex="0307"/>
  <outline>
    <contour>
      <point x="211" y="1328" type="qcurve"/>
      <point x="248" y="1328"/>
      <point x="274" y="1302" type="qcurve"/>
      <point x="301" y="1276"/>
      <point x="301" y="1240" type="qcurve"/>
      <point x="302" y="1204"/>
      <point x="275" y="1177" type="qcurve"/>
      <point x="248" y="1150"/>
      <point x="211" y="1150" type="qcurve"/>
      <point x="176" y="1150"/>
      <point x="150" y="1176" type="qcurve"/>
      <point x="126" y="1204"/>
      <point x="123" y="1240" type="qcurve"/>
      <point x="126" y="1275"/>
      <point x="149" y="1301" type="qcurve"/>
      <point x="175" y="1328"/>
    </contour>
  </outline>
</glyph>
<glyph name="ring" format="2">
  <advance width="641"/>
  <unicode hex="02DA"/>
  <unicode hex="030A"/>
  <outline>
    <contour>
      <point x="320" y="1136" type="qcurve"/>
      <point x="238" y="1136"/>
      <point x="178" y="1193" type="qcurve"/>
      <point x="121" y="1250"/>
      <point x="121" y="1335" type="qcurve"/>
      <point x="121" y="1420"/>
      <point x="178" y="1474" type="qcurve"/>
      <point x="238" y="1534"/>
      <point x="320" y="1533" type="qcurve"/>
      <point x="407" y="1534"/>
      <point x="461" y="1474" type="qcurve"/>
      <point x="519" y="1420"/>
      <point x="519" y="1335" type="qcurve"/>
      <point x="519" y="1250"/>
      <point x="461" y="1193" type="qcurve"/>
      <point x="407" y="1136"/>
    </contour>
    <contour>
      <point x="320" y="1222" type="qcurve"/>
      <point x="366" y="1222"/>
      <point x="400" y="1255" type="qcurve"/>
      <point x="436" y="1288"/>
      <point x="435" y="1335" type="qcurve"/>
      <point x="435" y="1382"/>
      <point x="402" y="1414" type="qcurve"/>
      <point x="368" y="1447"/>
      <point x="320" y="1447" type="qcurve"/>
      <point x="275" y="1447"/>
      <point x="242" y="1417" type="qcurve"/>
      <point x="210" y="1383"/>
      <point x="207" y="1335" type="qcurve"/>
      <point x="207" y="1288"/>
      <point x="240" y="1255" type="qcurve"/>
      <point x="276" y="1222"/>
    </contour>
  </outline>
</glyph>
<glyph name="dblgravecmb" format="2">
  <advance width="1016"/>
  <unicode hex="030F"/>
  <outline>
    <contour>
      <point x="661" y="1388" type="line"/>
      <point x="510" y="1353" type="line"/>
      <point x="782" y="1109" type="line"/>
      <point x="895" y="1109" type="line"/>
    </contour>
    <contour>
      <point x="276" y="1384" type="line"/>
      <point x="124" y="1349" type="line"/>
      <point x="397" y="1109" type="line"/>
      <point x="510" y="1109" type="line"/>
    </contour>
  </outline>
</glyph>
<glyph name="horncmb" format="2">
  <advance width="519"/>
  <unicode hex="031B"/>
  <outline>
    <contour>
      <point x="152" y="914" type="line"/>
      <point x="230" y="1004"/>
      <point x="254" y="1093" type="qcurve"/>
      <point x="212" y="1093"/>
      <point x="178" y="1123" type="qcurve"/>
      <point x="148" y="1156"/>
      <point x="148" y="1199" type="qcurve"/>
      <point x="148" y="1241"/>
      <point x="178" y="1269" type="qcurve"/>
      <point x="210" y="1300"/>
      <point x="254" y="1302" type="qcurve"/>
      <point x="308" y="1304"/>
      <point x="338" y="1259" type="qcurve"/>
      <point x="371" y="1218"/>
      <point x="371" y="1148" type="qcurve"/>
      <point x="372" y="1096"/>
      <point x="340" y="1031" type="qcurve"/>
      <point x="310" y="972"/>
      <point x="223" y="861" type="qcurve"/>
    </contour>
  </outline>
</glyph>
<glyph name="uni0326" format="2">
  <unicode hex="0326"/>
  <outline>
    <contour>
      <point x="-334" y="-486" type="line"/>
      <point x="-266" y="-408"/>
      <point x="-252" y="-332" type="qcurve"/>
      <point x="-282" y="-334"/>
      <point x="-312" y="-308" type="qcurve"/>
      <point x="-336" y="-278"/>
      <point x="-336" y="-246" type="qcurve"/>
      <point x="-338" y="-212"/>
      <point x="-312" y="-184" type="qcurve"/>
      <point x="-282" y="-156"/>
      <point x="-250" y="-158" type="qcurve"/>
      <point x="-204" y="-158"/>
      <point x="-176" y="-195" type="qcurve"/>
      <point x="-148" y="-229"/>
      <point x="-148" y="-289" type="qcurve"/>
      <point x="-146" y="-334"/>
      <point x="-174" y="-387" type="qcurve"/>
      <point x="-200" y="-436"/>
      <point x="-275" y="-529" type="qcurve"/>
    </contour>
  </outline>
</glyph>
<glyph name="quoteright" format="2">
  <advance width="508"/>
  <unicode hex="2019"/>
  <outline>
    <contour>
      <point x="151" y="914" type="line"/>
      <point x="229" y="1004"/>
      <point x="253" y="1093" type="qcurve"/>
      <point x="211" y="1093"/>
      <point x="177" y="1123" type="qcurve"/>
      <point x="147" y="1156"/>
      <point x="147" y="1199" type="qcurve"/>
      <point x="147" y="1241"/>
      <point x="177" y="1269" type="qcurve"/>
      <point x="209" y="1300"/>
      <point x="253" y="1302" type="qcurve"/>
      <point x="307" y="1304"/>
      <point x="337" y="1259" type="qcurve"/>
      <point x="370" y="1218"/>
      <point x="370" y="1148" type="qcurve"/>
      <point x="371" y="1096"/>
      <point x="339" y="1031" type="qcurve"/>
      <point x="309" y="972"/>
      <point x="222" y="861" type="qcurve"/>
    </contour>
  </outline>
</glyph>
<glyph name="quotesinglbase" format="2">
  <advance width="508"/>
  <unicode hex="201A"/>
  <outline>
    <contour>
      <point x="151" y="-203" type="line"/>
      <point x="229" y="-113"/>
      <point x="253" y="-23" type="qcurve"/>
      <point x="211" y="-22"/>
      <point x="177" y="8" type="qcurve"/>
      <point x="147" y="42"/>
      <point x="147" y="84" type="qcurve"/>
      <point x="147" y="126"/>
      <point x="177" y="154" type="qcurve"/>
      <point x="209" y="184"/>
      <point x="253" y="184" type="qcurve"/>
      <point x="307" y="184"/>
      <point x="337" y="141" type="qcurve"/>
      <point x="370" y="100"/>
      <point x="370" y="31" type="qcurve"/>
      <point x="372" y="-25"/>
      <point x="339" y="-88" type="qcurve"/>
      <point x="309" y="-148"/>
      <point x="222" y="-256" type="qcurve"/>
    </contour>
  </outline>
</glyph>
<glyph name="quotedblright" format="2">
  <advance width="893"/>
  <unicode hex="201D"/>
  <outline>
    <contour>
      <point x="151" y="914" type="line"/>
      <point x="229" y="1004"/>
      <point x="253" y="1093" type="qcurve"/>
      <point x="211" y="1093"/>
      <point x="177" y="1123" type="qcurve"/>
      <point x="147" y="1156"/>
      <point x="147" y="1199" type="qcurve"/>
      <point x="147" y="1241"/>
      <point x="177" y="1269" type="qcurve"/>
      <point x="209" y="1300"/>
      <point x="253" y="1302" type="qcurve"/>
      <point x="307" y="1304"/>
      <point x="337" y="1259" type="qcurve"/>
      <point x="370" y="1218"/>
      <point x="370" y="1148" type="qcurve"/>
      <point x="371" y="1096"/>
      <point x="339" y="1031" type="qcurve"/>
      <point x="309" y="972"/>
      <point x="222" y="861" type="qcurve"/>
    </contour>
    <contour>
      <point x="536" y="914" type="line"/>
      <point x="615" y="1004"/>
      <point x="639" y="1093" type="qcurve"/>
      <point x="599" y="1093"/>
      <point x="565" y="1123" type="qcurve"/>
      <point x="532" y="1156"/>
      <point x="532" y="1199" type="qcurve"/>
      <point x="532" y="1241"/>
      <point x="565" y="1269" type="qcurve"/>
      <point x="599" y="1300"/>
      <point x="641" y="1302" type="qcurve"/>
      <point x="695" y="1304"/>
      <point x="723" y="1259" type="qcurve"/>
      <point x="757" y="1218"/>
      <point x="757" y="1148" type="qcurve"/>
      <point x="757" y="1096"/>
      <point x="725" y="1031" type="qcurve"/>
      <point x="695" y="972"/>
      <point x="608" y="861" type="qcurve"/>
    </contour>
  </outline>
</glyph>
<glyph name="dagger" format="2">
  <advance width="1216"/>
  <unicode hex="2020"/>
  <outline>
    <contour>
      <point x="531" y="852" type="line"/>
      <point x="88" y="852" type="line"/>
      <point x="88" y="996" type="line"/>
      <point x="531" y="996" type="line"/>
      <point x="531" y="1456" type="line"/>
      <point x="681" y="1456" type="line"/>
      <point x="681" y="996" type="line"/>
      <point x="1128" y="996" type="line"/>
      <point x="1128" y="852" type="line"/>
      <point x="681" y="852" type="line"/>
      <point x="681" y="0" type="line"/>
      <point x="531" y="0" type="line"/>
    </contour>
  </outline>
</glyph>
<glyph name="guilsinglleft" format="2">
  <advance width="600"/>
  <unicode hex="2039"/>
  <outline>
    <contour>
      <point x="74" y="484" type="line"/>
      <point x="383" y="865" type="line"/>
      <point x="512" y="834" type="line"/>
      <point x="230" y="486" type="line"/>
      <point x="512" y="133" type="line"/>
      <point x="383" y="98" type="line"/>
    </contour>
  </outline>
</glyph>
<glyph name="guilsinglright" format="2">
  <advance width="600"/>
  <unicode hex="203A"/>
  <outline>
    <contour>
      <point x="88" y="133" type="line"/>
      <point x="369" y="486" type="line"/>
      <point x="88" y="834" type="line"/>
      <point x="215" y="865" type="line"/>
      <point x="525" y="484" type="line"/>
      <point x="215" y="98" type="line"/>
    </contour>
  </outline>
</glyph>
<glyph name="Euro" format="2">
  <advance width="1309"/>
  <unicode hex="20AC"/>
  <outline>
    <contour>
      <point x="779" y="126" type="qcurve"/>
      <point x="897" y="126"/>
      <point x="1002" y="175" type="qcurve"/>
      <point x="1108" y="226"/>
      <point x="1189" y="313" type="qcurve"/>
      <point x="1302" y="195" type="line"/>
      <point x="1203" y="94"/>
      <point x="1063" y="34" type="qcurve"/>
      <point x="931" y="-24"/>
      <point x="779" y="-25" type="qcurve"/>
      <point x="622" y="-25"/>
      <point x="475" y="43" type="qcurve"/>
      <point x="334" y="112"/>
      <point x="228" y="229" type="qcurve"/>
      <point x="120" y="349"/>
      <point x="70" y="499" type="qcurve"/>
      <point x="-128" y="499" type="line"/>
      <point x="-128" y="641" type="line"/>
      <point x="36" y="641" type="line"/>
      <point x="32" y="698"/>
      <point x="32" y="729" type="qcurve"/>
      <point x="32" y="789"/>
      <point x="44" y="853" type="qcurve"/>
      <point x="-128" y="853" type="line"/>
      <point x="-128" y="995" type="line"/>
      <point x="84" y="995" type="line"/>
      <point x="140" y="1136"/>
      <point x="244" y="1245" type="qcurve"/>
      <point x="348" y="1356"/>
      <point x="486" y="1415" type="qcurve"/>
      <point x="627" y="1479"/>
      <point x="779" y="1479" type="qcurve"/>
      <point x="931" y="1482"/>
      <point x="1063" y="1423" type="qcurve"/>
      <point x="1203" y="1364"/>
      <point x="1302" y="1258" type="qcurve"/>
      <point x="1189" y="1143" type="line"/>
      <point x="1110" y="1233"/>
      <point x="1004" y="1278" type="qcurve"/>
      <point x="898" y="1328"/>
      <point x="779" y="1328" type="qcurve"/>
      <point x="617" y="1328"/>
      <point x="475" y="1235" type="qcurve"/>
      <point x="336" y="1143"/>
      <point x="264" y="995" type="qcurve"/>
      <point x="923" y="995" type="line"/>
      <point x="923" y="853" type="line"/>
      <point x="214" y="853" type="line"/>
      <point x="204" y="798"/>
      <point x="203" y="729" type="qcurve"/>
      <point x="204" y="684"/>
      <point x="207" y="641" type="qcurve"/>
      <point x="923" y="641" type="line"/>
      <point x="923" y="499" type="line"/>
      <point x="244" y="499" type="line"/>
      <point x="314" y="339"/>
      <point x="460" y="231" type="qcurve"/>
      <point x="608" y="129"/>
    </contour>
  </outline>
</glyph>
<glyph name="a_mirror" format="2">
  <advance width="1229"/>
  <outline>
    <contour>
      <point x="1853" y="892" type="qcurve"/>
      <point x="1757" y="890"/>
      <point x="1681" y="840" type="qcurve"/>
      <point x="1604" y="792"/>
      <point x="1562" y="703" type="qcurve"/>
      <point x="1520" y="612"/>
      <point x="1519" y="498" type="qcurve"/>
      <point x="1520" y="382"/>
      <point x="1562" y="295" type="qcurve"/>
      <point x="1604" y="206"/>
      <point x="1681" y="156" type="qcurve"/>
      <point x="1757" y="105"/>
      <point x="1853" y="107" type="qcurve"/>
      <point x="1949" y="105"/>
      <point x="2025" y="156" type="qcurve"/>
      <point x="2104" y="206"/>
      <point x="2146" y="295" type="qcurve"/>
      <point x="2188" y="382"/>
      <point x="2187" y="498" type="qcurve"/>
      <point x="2188" y="612"/>
      <point x="2146" y="701" type="qcurve"/>
      <point x="2104" y="789"/>
      <point x="2028" y="840" type="qcurve"/>
      <point x="1948" y="890"/>
    </contour>
    <contour>
      <point x="1374" y="0" type="line"/>
      <point x="1374" y="996" type="line"/>
      <point x="1519" y="996" type="line"/>
      <point x="1519" y="810" type="line"/>
      <point x="1574" y="906"/>
      <point x="1667" y="962" type="qcurve"/>
      <point x="1762" y="1019"/>
      <point x="1880" y="1019" type="qcurve"/>
      <point x="2009" y="1022"/>
      <point x="2114" y="953" type="qcurve"/>
      <point x="2218" y="887"/>
      <point x="2280" y="767" type="qcurve"/>
      <point x="2340" y="644"/>
      <point x="2341" y="498" type="qcurve"/>
      <point x="2340" y="348"/>
      <point x="2280" y="230" type="qcurve"/>
      <point x="2218" y="110"/>
      <point x="2116" y="43" type="qcurve"/>
      <point x="2010" y="-25"/>
      <point x="1880" y="-25" type="qcurve"/>
      <point x="1764" y="-26"/>
      <point x="1670" y="30" type="qcurve"/>
      <point x="1576" y="87"/>
      <point x="1519" y="187" type="qcurve"/>
      <point x="1519" y="0" type="line"/>
    </contour>
  </outline>
</glyph>
<glyph name="descender" format="2">
  <advance width="1229"/>
  <outline>
    <contour>
      <point x="160" y="996" type="line"/>
      <point x="303" y="996" type="line"/>
      <point x="303" y="-332" type="line"/>
      <point x="160" y="-332" type="line"/>
    </contour>
  </outline>
</glyph>
<glyph name="g.salt" format="2">
  <advance width="1194"/>
  <outline>
    <contour>
      <point x="576" y="886" type="qcurve"/>
      <point x="480" y="886"/>
      <point x="413" y="829" type="qcurve"/>
      <point x="346" y="772"/>
      <point x="346" y="691" type="qcurve"/>
      <point x="346" y="612"/>
      <point x="413" y="555" type="qcurve"/>
      <point x="480" y="498"/>
      <point x="576" y="498" type="qcurve"/>
      <point x="670" y="498"/>
      <point x="739" y="554" type="qcurve"/>
      <point x="808" y="611"/>
      <point x="808" y="691" type="qcurve"/>
      <point x="808" y="772"/>
      <point x="739" y="828" type="qcurve"/>
      <point x="670" y="886"/>
    </contour>
    <contour>
      <point x="345" y="73" type="qcurve"/>
      <point x="262" y="11"/>
      <point x="262" y="-94" type="qcurve"/>
      <point x="262" y="-268"/>
      <point x="574" y="-269" type="qcurve"/>
      <point x="934" y="-269"/>
      <point x="933" y="-111" type="qcurve"/>
      <point x="933" y="43"/>
      <point x="695" y="43" type="qcurve"/>
      <point x="527" y="43" type="line"/>
      <point x="414" y="43"/>
    </contour>
    <contour>
      <point x="714" y="996" type="qcurve"/>
      <point x="1086" y="996" type="line"/>
      <point x="1086" y="865" type="line"/>
      <point x="902" y="865" type="line"/>
      <point x="962" y="790"/>
      <point x="961" y="693" type="qcurve"/>
      <point x="961" y="558"/>
      <point x="847" y="462" type="qcurve"/>
      <point x="735" y="368"/>
      <point x="576" y="367" type="qcurve"/>
      <point x="528" y="367"/>
      <point x="484" y="376" type="qcurve"/>
      <point x="394" y="318"/>
      <point x="394" y="238" type="qcurve"/>
      <point x="394" y="174"/>
      <point x="531" y="174" type="qcurve"/>
      <point x="693" y="174" type="line"/>
      <point x="1084" y="174"/>
      <point x="1086" y="-98" type="qcurve"/>
      <point x="1084" y="-400"/>
      <point x="578" y="-396" type="qcurve"/>
      <point x="110" y="-400"/>
      <point x="109" y="-109" type="qcurve"/>
      <point x="109" y="29"/>
      <point x="279" y="119" type="qcurve"/>
      <point x="240" y="164"/>
      <point x="240" y="234" type="qcurve"/>
      <point x="240" y="362"/>
      <point x="384" y="410" type="qcurve"/>
      <point x="342" y="431"/>
      <point x="304" y="463" type="qcurve"/>
      <point x="193" y="558"/>
      <point x="193" y="693" type="qcurve"/>
      <point x="194" y="826"/>
      <point x="305" y="922" type="qcurve"/>
      <point x="416" y="1018"/>
      <point x="576" y="1017" type="qcurve"/>
      <point x="651" y="1017"/>
    </contour>
  </outline>
</glyph>
<glyph name="j.salt" format="2">
  <advance width="434"/>
  <outline>
    <contour>
      <point x="223" y="1179" type="qcurve"/>
      <point x="184" y="1177"/>
      <point x="156" y="1207" type="qcurve"/>
      <point x="126" y="1239"/>
      <point x="127" y="1273" type="qcurve"/>
      <point x="126" y="1312"/>
      <point x="154" y="1341" type="qcurve"/>
      <point x="182" y="1369"/>
      <point x="223" y="1369" type="qcurve"/>
      <point x="262" y="1372"/>
      <point x="291" y="1343" type="qcurve"/>
      <point x="321" y="1312"/>
      <point x="318" y="1273" type="qcurve"/>
      <point x="322" y="1239"/>
      <point x="293" y="1207" type="qcurve"/>
      <point x="265" y="1177"/>
    </contour>
    <contour>
      <point x="295" y="-379" type="line"/>
      <point x="150" y="-379" type="line"/>
      <point x="150" y="996" type="line"/>
      <point x="295" y="996" type="line"/>
    </contour>
  </outline>
</glyph>
<glyph name="l.salt" format="2">
  <advance width="664"/>
  <outline>
    <contour>
      <point x="137" y="1456" type="line"/>
      <point x="281" y="1456" type="line"/>
      <point x="281" y="230" type="line"/>
      <point x="284" y="174"/>
      <point x="316" y="141" type="qcurve"/>
      <point x="346" y="108"/>
      <point x="400" y="110" type="qcurve"/>
      <point x="456" y="113"/>
      <point x="488" y="131" type="qcurve"/>
      <point x="527" y="4" type="line"/>
      <point x="460" y="-20"/>
      <point x="368" y="-23" type="qcurve"/>
      <point x="278" y="-26"/>
      <point x="203" y="47" type="qcurve"/>
      <point x="135" y="116"/>
      <point x="137" y="230" type="qcurve"/>
    </contour>
  </outline>
</glyph>
<glyph name="y.salt" format="2">
  <advance width="1143"/>
  <outline>
    <contour>
      <point x="293" y="-346" type="qcurve"/>
      <point x="210" y="-344"/>
      <point x="135" y="-314" type="qcurve"/>
      <point x="172" y="-191" type="line"/>
      <point x="226" y="-215"/>
      <point x="289" y="-215" type="qcurve"/>
      <point x="340" y="-215"/>
      <point x="371" y="-197" type="qcurve"/>
      <point x="404" y="-176"/>
      <point x="435" y="-127" type="qcurve"/>
      <point x="490" y="-4" type="line"/>
      <point x="57" y="996" type="line"/>
      <point x="217" y="996" type="line"/>
      <point x="566" y="168" type="line"/>
      <point x="896" y="996" type="line"/>
      <point x="1054" y="996" type="line"/>
      <point x="599" y="-111" type="line"/>
      <point x="554" y="-234"/>
      <point x="476" y="-289" type="qcurve"/>
      <point x="402" y="-343"/>
    </contour>
  </outline>
</glyph>
